<svg width="195" height="90" viewBox="0 0 195 90" fill="none" xmlns="http://www.w3.org/2000/svg">
<rect width="195" height="90" rx="24" fill="white"/>
<g clip-path="url(#clip0_1457_2929)">
<path d="M177.098 59.127C177.129 59.1264 177.159 59.1195 177.187 59.1068C177.215 59.094 177.24 59.0757 177.26 59.0529C177.281 59.0302 177.296 59.0035 177.306 58.9745C177.315 58.9456 177.319 58.915 177.316 58.8847V58.6963C177.318 58.6674 177.314 58.6383 177.304 58.611C177.294 58.5838 177.278 58.5591 177.258 58.5385C177.237 58.518 177.212 58.5023 177.184 58.4923C177.157 58.4823 177.128 58.4785 177.098 58.4809H176.528V59.127H177.098ZM176.528 59.4231V60.1499H176.148V58.1579H177.071C177.159 58.15 177.247 58.1614 177.33 58.1911C177.412 58.2208 177.488 58.2681 177.55 58.3297C177.612 58.3914 177.66 58.4658 177.69 58.5477C177.72 58.6297 177.731 58.7171 177.723 58.8039C177.733 58.9408 177.695 59.0769 177.616 59.1896C177.537 59.3023 177.421 59.3847 177.289 59.4231L177.723 60.1768H177.289L176.881 59.45C176.765 59.4277 176.646 59.4186 176.528 59.4231ZM176.745 60.8498C177.199 60.8903 177.65 60.7519 178.001 60.4646C178.352 60.1773 178.574 59.7643 178.62 59.3154V58.9924C178.578 58.5677 178.378 58.1736 178.059 57.8869C177.74 57.6001 177.325 57.4413 176.895 57.4413C176.464 57.4413 176.049 57.6001 175.73 57.8869C175.411 58.1736 175.211 58.5677 175.17 58.9924V59.3154C175.212 59.7125 175.392 60.0826 175.68 60.3625C175.967 60.6423 176.344 60.8146 176.745 60.8498ZM96.8208 48.6016L96.4949 48.7093C94.0744 49.4276 91.4934 49.4183 89.0783 48.6824L88.7523 48.5747L92.5013 36.4342C92.5209 36.3708 92.5605 36.3152 92.6143 36.2757C92.6681 36.2363 92.7332 36.2149 92.8002 36.2149C92.8671 36.2149 92.9323 36.2363 92.9861 36.2757C93.0399 36.3152 93.0795 36.3708 93.099 36.4342L96.8208 48.6016ZM88.2362 31.0504L77.8313 61.2267H84.8404L87.1224 53.8778L87.4483 53.9854C90.9277 55.0305 94.6402 55.0399 98.1248 54.0124L98.4508 53.9047L100.679 61.2267H107.688L97.337 31.0504C97.0182 30.1235 96.4144 29.3187 95.6105 28.749C94.8066 28.1793 93.8429 27.8733 92.8545 27.874H92.7458C91.7535 27.8705 90.7851 28.175 89.9763 28.7447C89.1675 29.3144 88.559 30.1206 88.2362 31.0504ZM160.364 36.2189H152.92L145.667 45.8828V27.874H139.391V61.2536H145.667V49.2477L154.17 61.2536H161.179L151.888 48.2786C151.732 48.0561 151.652 47.791 151.656 47.5205C151.661 47.2501 151.752 46.988 151.915 46.7711L160.364 36.2189ZM127.438 36.2189H117.359C115.868 36.2217 114.44 36.8097 113.386 37.8541C112.332 38.8985 111.738 40.3141 111.735 41.7911V61.2536H118.011V43.2178C118.014 42.8403 118.166 42.4791 118.436 42.2121C118.705 41.9452 119.07 41.7939 119.451 41.7911H125.998C126.379 41.7939 126.743 41.9452 127.013 42.2121C127.282 42.4791 127.435 42.8403 127.438 43.2178V61.2536H133.713V41.7911C133.71 40.3141 133.117 38.8985 132.063 37.8541C131.009 36.8097 129.58 36.2217 128.09 36.2189H127.438ZM179 36.2189H170.47C168.979 36.2217 167.55 36.8097 166.496 37.8541C165.442 38.8985 164.849 40.3141 164.846 41.7911V61.2536H171.122V43.2178C171.125 42.8403 171.277 42.4791 171.547 42.2121C171.816 41.9452 172.181 41.7939 172.562 41.7911H179V36.2189ZM44.7967 18.8292L62.4278 27.7932C63.6817 28.4306 64.7334 29.3989 65.4668 30.5913C66.2003 31.7836 66.5871 33.1535 66.5844 34.5499V38.6416H60.0915V34.5499C60.0924 34.3389 60.0345 34.1318 59.9243 33.9513C59.8141 33.7709 59.6557 33.624 59.4667 33.527L41.8355 24.5629C41.6705 24.4832 41.4893 24.4418 41.3058 24.4418C41.1222 24.4418 40.941 24.4832 40.776 24.5629L23.1448 33.527C22.9558 33.624 22.7975 33.7709 22.6872 33.9513C22.577 34.1318 22.5191 34.3389 22.52 34.5499V38.6416H16V34.5499C15.9973 33.1535 16.384 31.7836 17.1175 30.5913C17.851 29.3989 18.9027 28.4306 20.1565 27.7932L37.7877 18.8292C38.8743 18.285 40.0747 18.0015 41.2922 18.0015C42.5097 18.0015 43.7101 18.285 44.7967 18.8292ZM46.8613 44.4023C46.8613 43.3108 46.5347 42.2439 45.9228 41.3364C45.3108 40.4289 44.441 39.7216 43.4234 39.3039C42.4058 38.8862 41.286 38.777 40.2057 38.9899C39.1254 39.2028 38.133 39.7284 37.3542 40.5002C36.5753 41.2719 36.0449 42.2552 35.83 43.3257C35.6151 44.3961 35.7254 45.5057 36.1469 46.5141C36.5685 47.5224 37.2823 48.3843 38.1981 48.9906C39.114 49.597 40.1907 49.9207 41.2922 49.9207C42.7686 49.9185 44.1838 49.3364 45.2278 48.302C46.2717 47.2676 46.8592 45.8652 46.8613 44.4023ZM59.4667 55.8159C59.6557 55.7189 59.8141 55.572 59.9243 55.3916C60.0345 55.2111 60.0924 55.004 60.0915 54.793V50.7013H66.5844V54.8199C66.5904 56.2134 66.2047 57.5811 65.4706 58.7697C64.7365 59.9583 63.6829 60.9209 62.4278 61.5497L44.7967 70.5137C43.7114 71.0623 42.5105 71.3482 41.2922 71.3482C40.0739 71.3482 38.8729 71.0623 37.7877 70.5137L20.1565 61.5497C18.906 60.9153 17.8563 59.9514 17.123 58.7641C16.3897 57.5768 16.0011 56.212 16 54.8199V50.7282H22.4928V54.8199C22.492 55.0309 22.5498 55.238 22.6601 55.4185C22.7703 55.5989 22.9287 55.7458 23.1177 55.8428L38.0322 63.4071V55.8967C35.2208 55.1191 32.7888 53.3589 31.1861 50.9416C29.5835 48.5244 28.9187 45.6138 29.3147 42.7483C29.7107 39.8828 31.1407 37.2564 33.3402 35.3551C35.5397 33.4538 38.3598 32.4062 41.2786 32.4062C44.1974 32.4062 47.0175 33.4538 49.217 35.3551C51.4165 37.2564 52.8465 39.8828 53.2425 42.7483C53.6385 45.6138 52.9737 48.5244 51.3711 50.9416C49.7684 53.3589 47.3364 55.1191 44.525 55.8967V63.4071L59.4667 55.8159Z" fill="#396AE8"/>
</g>
<defs>
<clipPath id="clip0_1457_2929">
<rect width="163" height="53.3455" fill="white" transform="translate(16 18)"/>
</clipPath>
</defs>
</svg>
