<svg width="89" height="90" viewBox="0 0 89 90" fill="none" xmlns="http://www.w3.org/2000/svg">
<rect width="89" height="90" rx="24" fill="white"/>
<path d="M80.1483 50.7309C80.1621 50.7306 80.1756 50.7277 80.1881 50.7222C80.2006 50.7167 80.2118 50.7088 80.2209 50.699C80.2301 50.6892 80.237 50.6777 80.2413 50.6652C80.2455 50.6527 80.247 50.6395 80.2457 50.6265V50.5452C80.2468 50.5327 80.245 50.5202 80.2405 50.5085C80.236 50.4967 80.2289 50.4861 80.2196 50.4772C80.2104 50.4684 80.1992 50.4616 80.1869 50.4573C80.1745 50.453 80.1614 50.4513 80.1483 50.4524H79.8928V50.7309H80.1483ZM79.8928 50.8586V51.1719H79.7225V50.3131H80.1362C80.1754 50.3097 80.2149 50.3146 80.252 50.3274C80.289 50.3402 80.3226 50.3606 80.3505 50.3872C80.3784 50.4137 80.3998 50.4458 80.4132 50.4812C80.4266 50.5165 80.4317 50.5542 80.4282 50.5916C80.4326 50.6506 80.4157 50.7093 80.3803 50.7579C80.3448 50.8065 80.293 50.842 80.2335 50.8586L80.4282 51.1835H80.2335L80.051 50.8702C79.9989 50.8606 79.9459 50.8567 79.8928 50.8586V50.8586ZM79.9902 51.4737C80.1932 51.4912 80.3953 51.4315 80.5525 51.3076C80.7097 51.1837 80.8093 51.0057 80.8297 50.8121V50.6729C80.811 50.4898 80.7215 50.3199 80.5787 50.1962C80.4359 50.0726 80.2499 50.0041 80.0571 50.0041C79.8642 50.0041 79.6783 50.0726 79.5355 50.1962C79.3926 50.3199 79.3032 50.4898 79.2845 50.6729V50.8121C79.3035 50.9833 79.3843 51.1429 79.513 51.2636C79.6417 51.3842 79.8104 51.4585 79.9902 51.4737ZM44.1958 46.193L44.0498 46.2394C42.9659 46.5491 41.8099 46.5451 40.7283 46.2278L40.5823 46.1814L42.2613 40.9471C42.2701 40.9197 42.2878 40.8958 42.3119 40.8788C42.336 40.8618 42.3652 40.8526 42.3952 40.8526C42.4252 40.8526 42.4543 40.8618 42.4784 40.8788C42.5025 40.8958 42.5203 40.9197 42.529 40.9471L44.1958 46.193V46.193ZM40.3512 38.6259L35.6913 51.6362H38.8303L39.8523 48.4677L39.9983 48.5142C41.5566 48.9648 43.2192 48.9688 44.7798 48.5258L44.9258 48.4794L45.9235 51.6362H49.0625L44.427 38.6259C44.2842 38.2263 44.0138 37.8793 43.6538 37.6337C43.2937 37.3881 42.8621 37.2561 42.4195 37.2564H42.3708C41.9264 37.2549 41.4927 37.3862 41.1305 37.6318C40.7683 37.8774 40.4957 38.2251 40.3512 38.6259V38.6259ZM72.6537 40.8543H69.32L66.0715 45.0208V37.2564H63.261V51.6478H66.0715V46.4715L69.8797 51.6478H73.0187L68.8577 46.0537C68.7881 45.9578 68.7519 45.8435 68.7541 45.7269C68.7563 45.6103 68.7967 45.4973 68.8698 45.4038L72.6537 40.8543ZM57.9077 40.8543H53.3938C52.7263 40.8555 52.0864 41.109 51.6144 41.5593C51.1424 42.0095 50.8766 42.6199 50.8753 43.2567V43.2567V51.6478H53.6858V43.8718C53.6871 43.709 53.7555 43.5533 53.8761 43.4382C53.9968 43.3231 54.16 43.2579 54.3307 43.2567H57.2628C57.4335 43.2579 57.5967 43.3231 57.7174 43.4382C57.838 43.5533 57.9064 43.709 57.9077 43.8718V43.8718V51.6478H60.7182V43.2567C60.7169 42.6199 60.4511 42.0095 59.9791 41.5593C59.5071 41.109 58.8672 40.8555 58.1997 40.8543H57.9077ZM81 40.8543H77.1797C76.5121 40.8555 75.8723 41.109 75.4002 41.5593C74.9282 42.0095 74.6625 42.6199 74.6612 43.2567V43.2567V51.6478H77.4717V43.8718C77.4729 43.709 77.5413 43.5533 77.6619 43.4382C77.7826 43.3231 77.9459 43.2579 78.1165 43.2567H81V40.8543ZM20.8967 33.3568L28.7928 37.2216C29.3544 37.4964 29.8254 37.9139 30.1539 38.428C30.4824 38.942 30.6555 39.5327 30.6543 40.1347V41.8988H27.7465V40.1347C27.7469 40.0437 27.721 39.9544 27.6716 39.8766C27.6222 39.7988 27.5513 39.7355 27.4667 39.6937L19.5705 35.8289C19.4966 35.7945 19.4155 35.7767 19.3333 35.7767C19.251 35.7767 19.1699 35.7945 19.096 35.8289L11.1998 39.6937C11.1152 39.7355 11.0443 39.7988 10.9949 39.8766C10.9455 39.9544 10.9196 40.0437 10.92 40.1347V41.8988H8.00001V40.1347C7.9988 39.5327 8.17199 38.942 8.50048 38.428C8.82897 37.9139 9.29998 37.4964 9.86151 37.2216L17.7577 33.3568C18.2443 33.1222 18.7819 33 19.3272 33C19.8724 33 20.41 33.1222 20.8967 33.3568V33.3568ZM21.8213 44.3825C21.8213 43.9119 21.6751 43.4519 21.401 43.0606C21.1269 42.6694 20.7374 42.3644 20.2816 42.1844C19.8259 42.0043 19.3244 41.9572 18.8406 42.049C18.3568 42.1408 17.9123 42.3674 17.5635 42.7001C17.2147 43.0328 16.9772 43.4568 16.8809 43.9183C16.7847 44.3798 16.8341 44.8582 17.0229 45.2929C17.2116 45.7277 17.5313 46.0993 17.9415 46.3607C18.3517 46.6221 18.8339 46.7617 19.3272 46.7617C19.9884 46.7608 20.6222 46.5098 21.0897 46.0638C21.5573 45.6178 21.8204 45.0132 21.8213 44.3825V44.3825ZM27.4667 49.3034C27.5513 49.2615 27.6222 49.1982 27.6716 49.1204C27.721 49.0426 27.7469 48.9533 27.7465 48.8623V47.0982H30.6543V48.874C30.657 49.4748 30.4843 50.0644 30.1555 50.5769C29.8268 51.0893 29.3549 51.5043 28.7928 51.7754L20.8967 55.6402C20.4106 55.8767 19.8728 56 19.3272 56C18.7816 56 18.2437 55.8767 17.7577 55.6402L9.86151 51.7754C9.30147 51.5019 8.83137 51.0864 8.50294 50.5745C8.17452 50.0625 8.00049 49.4741 8.00001 48.874V47.1099H10.9078V48.874C10.9074 48.9649 10.9334 49.0542 10.9827 49.132C11.0321 49.2098 11.103 49.2731 11.1877 49.315L17.8672 52.5762V49.3382C16.6081 49.003 15.5189 48.244 14.8012 47.2019C14.0834 46.1597 13.7857 44.9048 13.963 43.6694C14.1404 42.4339 14.7808 41.3016 15.7659 40.4818C16.7509 39.6621 18.0139 39.2104 19.3211 39.2104C20.6283 39.2104 21.8913 39.6621 22.8763 40.4818C23.8614 41.3016 24.5018 42.4339 24.6792 43.6694C24.8565 44.9048 24.5588 46.1597 23.841 47.2019C23.1233 48.244 22.0341 49.003 20.775 49.3382V52.5762L27.4667 49.3034V49.3034Z" fill="#396AE8"/>
</svg>
