<?xml version="1.0" encoding="UTF-8"?>
<svg width="172px" height="40px" viewBox="0 0 172 40" version="1.1" xmlns="http://www.w3.org/2000/svg" xmlns:xlink="http://www.w3.org/1999/xlink">
    <title>Group 48@</title>
    <defs>
        <polygon id="path-1" points="-1.0702575e-15 0 24.5 0 24.5 16.5 -1.0702575e-15 16.5"></polygon>
        <polygon id="path-3" points="0 0 24.5 0 24.5 16.5 0 16.5"></polygon>
        <polygon id="path-5" points="0 0 13.5 0 13.5 17.5 0 17.5"></polygon>
    </defs>
    <g id="FS---Landing-page" stroke="none" stroke-width="1" fill="none" fill-rule="evenodd" opacity="0.800000012">
        <g id="Desktop-V1-Copy-4" transform="translate(-758.000000, -1739.000000)">
            <g id="Group-48" transform="translate(758.000000, 1739.000000)">
                <path d="M91.5406986,12.0635526 L91.5406986,11.6202852 C91.5409285,8.42413722 91.5408519,5.22798924 91.5416183,2.03191605 C91.541695,1.50674217 91.5431513,1.50599416 92.0952321,1.50576976 C93.0908631,1.50524616 94.0865708,1.51541902 95.0818185,1.5 C95.4005124,1.4952229 95.5003821,1.60413234 95.5,1.90931813 C95.4934073,7.4683372 95.493484,13.0273563 95.5,18.5863753 C95.5002288,18.8868487 95.40971,19.0060058 95.0859574,18.9997226 C94.2184018,18.9828177 93.3500031,18.9838649 92.4824475,18.9997974 C92.1957916,19.0050334 92.0125311,18.9089896 91.8412274,18.6888519 C89.481375,15.6572649 87.1140879,12.6312879 84.7479504,9.60441336 C84.3393508,9.08163308 83.9279153,8.56087242 83.496092,8.0116876 C83.3830392,8.17310695 83.4259609,8.32255822 83.4258843,8.45862022 C83.4230484,11.7915034 83.4239681,15.1244614 83.4235849,18.4574194 C83.4235083,18.9923173 83.4221286,18.9934393 82.8791687,18.9938133 C81.8963375,18.9946361 80.9135064,18.9859593 79.9308286,18.9986006 C79.6321393,19.0024902 79.4994651,18.933599 79.5,18.6073943 C79.5085093,13.0359583 79.5078195,7.46452238 79.501228,1.89308644 C79.5009214,1.60637635 79.5865349,1.49649451 79.8918924,1.50090773 C80.8616937,1.51489542 81.8319549,1.51354901 82.8017563,1.50083293 C83.0733895,1.49724251 83.2474525,1.59149107 83.4096354,1.79988509 C85.6839509,4.72293667 87.9653179,7.64090182 90.2454585,10.559615 C90.6455504,11.0716988 91.048095,11.5819126 91.4495665,12.0929492 C91.4799183,12.0831503 91.5103468,12.0733515 91.5406986,12.0635526" id="Fill-1" fill="#FEFEFE"></path>
                <path d="M131.195877,12.0707192 C131.195877,11.9247849 131.195802,11.7788506 131.195877,11.6329163 C131.196026,8.42423216 131.195951,5.21554801 131.19677,2.00686385 C131.196919,1.50757564 131.198929,1.50593004 131.684505,1.50540644 C132.65171,1.50435925 133.618915,1.51378401 134.585747,1.50032006 C134.885267,1.49613128 134.999328,1.58723735 134.998881,1.90184503 C134.991808,7.461036 134.991361,13.020227 135,18.5794927 C135.000593,18.9157923 134.881098,19.0053276 134.565645,18.9988948 C133.747642,18.9820649 132.92882,18.9811673 132.110965,18.9997176 C131.81487,19.0064496 131.635664,18.892754 131.462787,18.6644652 C128.853247,15.2186659 126.236709,11.778327 123.619798,8.33813767 C123.540656,8.23409124 123.488167,8.09960132 123.342763,8.04604471 C123.262652,8.17597185 123.302186,8.31435135 123.302112,8.44427849 C123.299357,11.7897714 123.300102,15.1352642 123.299655,18.4807571 C123.299581,18.9914149 123.298315,18.9926117 122.789436,18.9929857 C121.82238,18.9938085 120.855101,18.9856553 119.888194,18.9974736 C119.603266,19.0009892 119.5,18.9122767 119.500374,18.613751 C119.50767,13.0420685 119.507893,7.47046076 119.5,1.89877824 C119.499555,1.58147777 119.612796,1.49560768 119.911423,1.5 C120.841104,1.51438241 121.771232,1.51311082 122.700913,1.50024526 C122.965366,1.49658007 123.133627,1.59254813 123.290944,1.80041659 C125.816279,5.13857908 128.348091,8.47180479 130.878712,11.8058533 C130.952791,11.9035417 131.030966,11.9980138 131.107279,12.0940567 C131.136762,12.0862775 131.166319,12.0784983 131.195877,12.0707192" id="Fill-3" fill="#FEFEFE"></path>
                <g id="Group-7" transform="translate(8.000000, 23.500000)">
                    <mask id="mask-2" fill="white">
                        <use xlink:href="#path-1"></use>
                    </mask>
                    <g id="Clip-6"></g>
                    <path d="M24.5,4.4427804 C24.4266455,4.52169556 24.3463621,4.61466001 24.2593007,4.70097346 C22.2293228,6.71345941 20.1986671,8.72527279 18.1680114,10.7370862 C16.2969433,12.5907703 14.4213564,14.4399707 12.5597777,16.3029961 C12.3113211,16.5516237 12.1664949,16.5755373 11.903503,16.313832 C8.00102605,12.4315949 4.08943626,8.55825066 0.172951152,4.68991338 C-0.0419159133,4.47760471 -0.0688025388,4.35377666 0.161654251,4.1289133 C1.5022952,2.82143264 2.83269363,1.50348974 4.15239766,0.175383526 C4.3837582,-0.0574759704 4.51404913,-0.059344227 4.74894937,0.175084605 C7.09900612,2.52049388 9.46073634,4.85446942 11.8202072,7.19061213 C12.280217,7.64601835 12.1965446,7.62524334 12.6498516,7.17663758 C14.9923771,4.85880377 17.3375385,2.54366026 19.6671102,0.213047578 C19.9391396,-0.0591947665 20.0805015,-0.0508997074 20.344849,0.21663463 C21.6430889,1.53061683 22.9636967,2.82285252 24.2745138,4.12457895 C24.3604456,4.20984618 24.4742431,4.27889694 24.5,4.4427804" id="Fill-5" fill="#FEFEFE" mask="url(#mask-2)"></path>
                </g>
                <g id="Group-10" transform="translate(8.000000, 0.000000)">
                    <mask id="mask-4" fill="white">
                        <use xlink:href="#path-3"></use>
                    </mask>
                    <g id="Clip-9"></g>
                    <path d="M4.52127456,16.5 C4.39234568,16.4918888 4.33828603,16.4183674 4.27744065,16.3584639 C2.89194529,14.9942999 1.51180313,13.6247036 0.117637122,12.269246 C-0.116395179,12.0417613 0.0476687023,11.9389951 0.1886611,11.8000635 C3.17166818,8.86077073 6.15452447,5.92125473 9.13745615,2.98181313 C10.0962045,2.03704843 11.0588734,1.09600445 12.0103082,0.14402155 C12.1880943,-0.033903182 12.2983248,-0.0577157768 12.4914165,0.13308264 C16.4457632,4.03983649 20.4052369,7.94160457 24.3699129,11.8381637 C24.5695642,12.0343943 24.5212347,12.1434858 24.3478216,12.3129273 C23.0018343,13.6285731 21.6579581,14.9463026 20.3285581,16.2781708 C20.0960337,16.5111622 19.9694422,16.5127993 19.7339773,16.2791382 C17.3722416,13.934937 14.9989701,11.6019725 12.6266033,9.26811494 C12.1985745,8.84700408 12.3022454,8.85377578 11.890804,9.25851548 C9.51821102,11.5922986 7.14870937,13.9291327 4.77754898,16.2644041 C4.68993766,16.3507248 4.59644537,16.4311667 4.52127456,16.5" id="Fill-8" fill="#FEFEFE" mask="url(#mask-4)"></path>
                </g>
                <g id="Group-13" transform="translate(158.500000, 1.500000)">
                    <mask id="mask-6" fill="white">
                        <use xlink:href="#path-5"></use>
                    </mask>
                    <g id="Clip-12"></g>
                    <path d="M0,8.75926699 C0,6.02137232 -0.00027318399,3.28347765 0.000406949944,0.545582984 C0.000558090818,0.00150697471 0.00244735175,0.000309393725 0.529248869,0.000234544914 C4.63204347,0 8.7347625,0 12.8374815,0.000384242537 C13.3579351,0.000459091348 13.3592198,0.00218061401 13.3598244,0.514071634 C13.3608824,1.34788739 13.344937,2.18207739 13.3670792,3.01536921 C13.3764499,3.36633529 13.2476023,3.45420779 12.9102559,3.45286051 C10.0912518,3.44185774 7.27217226,3.44657321 4.45309268,3.44679776 C3.90792754,3.44687261 3.90762526,3.44762109 3.90747412,4.00172684 C3.90717184,4.8231177 3.90679399,5.64450855 3.90762526,6.46589941 C3.90807868,6.96282067 3.9090611,6.96469189 4.39981552,6.96491643 C6.82872494,6.96588947 9.25770993,6.96536553 11.6866193,6.96603917 C12.22589,6.96626371 12.2267213,6.96753614 12.2270991,7.49798967 C12.2277037,8.31938052 12.2136476,9.14107077 12.2335226,9.96193769 C12.2417598,10.3021255 12.130369,10.412303 11.7828961,10.4105815 C9.32882171,10.398456 6.87474733,10.4038451 4.42067296,10.404369 C3.90853211,10.4045187 3.90785197,10.4059408 3.90754969,10.9209755 C3.9070207,11.8294904 3.92122794,12.7382298 3.90029493,13.6462956 C3.89258674,13.9815434 4.01108119,14.0676944 4.3346738,14.0665716 C7.2040833,14.0566916 10.0735684,14.0610328 12.9429779,14.0615568 C13.4987984,14.0617065 13.4993274,14.0626047 13.4997053,14.6093752 C13.5000642,15.3934165 13.5002343,16.1774578 13.4996297,16.9614991 C13.4991763,17.4981651 13.4984961,17.4994375 12.9694275,17.4995872 C10.6035438,17.5 8.23750903,17.5 5.87147421,17.5 C4.09700478,17.5 2.32253534,17.500186 0.548065908,17.4998118 C0.00282520393,17.4996621 0.000633661255,17.4989136 0.000482520381,16.9730258 C-0.00027318399,14.2350563 0,11.4971617 0,8.75926699" id="Fill-11" fill="#FEFEFE" mask="url(#mask-6)"></path>
                </g>
                <path d="M148.280591,19.5 C143.917956,19.5031237 140.400842,16.9537384 139.325693,12.9338744 C138.305386,9.11917618 139.704756,5.0550929 143.208467,2.89787484 C144.731996,1.95988921 146.411547,1.52320479 148.214414,1.50116957 C150.468572,1.47369999 152.570998,1.92601751 154.392247,3.29167992 C154.694257,3.51813645 154.970378,3.77690137 155.263886,4.01437551 C155.418299,4.13944026 155.405125,4.25549737 155.282881,4.39143084 C154.553784,5.20263952 153.821623,6.01139158 153.102866,6.83116124 C152.918198,7.04176135 152.803614,6.91282554 152.66743,6.80004394 C151.855228,6.12752313 150.978151,5.5670395 149.939921,5.27090403 C146.770926,4.36708788 143.658916,6.34586534 143.228611,9.53151764 C142.995383,11.2577834 143.34197,12.8344926 144.483449,14.202835 C146.213169,16.2763787 149.142732,16.3252135 151.098327,15.3183679 C151.722644,14.9969217 152.278869,14.5839102 152.797716,14.1239251 C152.987898,13.9552365 153.114049,13.9525566 153.299099,14.1385904 C153.981015,14.8241388 154.675415,15.4981484 155.374641,16.167096 C155.538245,16.3237247 155.541998,16.4324119 155.384215,16.5949216 C153.870873,18.1534666 152.054219,19.1434881 149.844792,19.4145362 C149.324642,19.4782597 148.803498,19.4976149 148.280591,19.5" id="Fill-14" fill="#FEFEFE"></path>
                <path d="M71.369765,28.0508207 C71.2009363,28.3038253 71.0603706,28.5112124 70.9229536,28.7208229 C69.957661,30.1930797 68.9942427,31.6667932 68.0273008,33.1380533 C67.7224045,33.6019718 67.7179814,33.5995184 67.422906,33.1484035 C66.3966641,31.5795449 65.3718467,30.0097663 64.342906,28.4428245 C64.2705615,28.3327291 64.2309783,28.1867531 64.0813414,28.1317055 C64.0050986,28.2668713 64.0425078,28.4083238 64.0423579,28.5421863 C64.039584,31.0280716 64.0320122,33.5141102 64.0489551,35.9999188 C64.051579,36.3883192 63.9454238,36.5260151 63.5652592,36.4960378 C63.1928914,36.466674 62.8154257,36.4702774 62.4423832,36.4951178 C62.0914563,36.5185016 61.9985705,36.375439 62,36.031276 C62.0114651,33.3541806 62.0063672,30.6769318 62.0063672,27.9997597 C62.0063672,26.9799212 62.0173876,25.9598526 62.0002198,24.9403207 C61.9945222,24.6062779 62.0985783,24.4852957 62.4285141,24.5020093 C62.8893445,24.5253931 63.3528739,24.5235531 63.8139293,24.5020093 C64.0997836,24.4887458 64.2686873,24.5970777 64.4206482,24.8411122 C65.4453907,26.4867155 66.4834775,28.1236553 67.5172911,29.7633552 C67.7508925,30.1338919 67.7586892,30.1346586 67.9979882,29.7547684 C69.0245299,28.125342 70.0544452,26.498139 71.0715409,24.8626559 C71.2287495,24.6098813 71.400652,24.485219 71.7041988,24.501396 C72.1649544,24.5259298 72.6284837,24.5227864 73.0895391,24.5028527 C73.4004329,24.4894358 73.499541,24.6066612 73.4979667,24.9212303 C73.4876211,26.9481806 73.4927939,28.9752075 73.4928689,31.0022344 C73.4928689,32.6722182 73.4840226,34.3423553 73.5,36.0122624 C73.5032895,36.3733689 73.4061305,36.5231017 73.0378859,36.4955012 C72.6778129,36.468514 72.3142164,36.4909011 71.9521192,36.4894444 C71.4497562,36.487451 71.447882,36.4866077 71.4477321,35.9870386 C71.4470574,33.5138035 71.4483318,31.0406451 71.445633,28.5674867 C71.445483,28.4197474 71.4830422,28.2648779 71.369765,28.0508207" id="Fill-16" fill="#FEFEFE"></path>
                <path d="M70.505472,10.2096926 C70.5053951,7.4747998 70.5050105,4.73990704 70.5057797,2.00501428 C70.5059336,1.50904618 70.5081645,1.50725109 71.0138173,1.50657793 C72.0255075,1.50530641 73.0374286,1.51645092 74.0488111,1.50022032 C74.3745275,1.49498465 74.5005368,1.58159769 74.5,1.9174289 C74.491613,7.47420144 74.4922285,13.0310488 74.4987674,18.5878213 C74.4991521,18.8905182 74.4037604,19.0037584 74.0814289,18.9990463 C73.031505,18.9837132 71.9810427,18.9814693 70.9312728,18.9997942 C70.5837086,19.0058526 70.4989331,18.8785509 70.5,18.5635128 C70.5095493,15.7788811 70.505549,12.9942494 70.505472,10.2096926" id="Fill-18" fill="#FEFEFE"></path>
                <path d="M163.679087,28.1440893 C163.560706,28.3328553 163.603536,28.4881613 163.603382,28.6344531 C163.600295,31.0730558 163.601684,33.5117349 163.601144,35.9503376 C163.60099,36.4597995 163.599369,36.4609454 163.09436,36.4630844 C162.696002,36.464765 162.296949,36.4498685 161.899362,36.4673624 C161.597314,36.4805783 161.500155,36.3690452 161.502161,36.0702739 C161.51366,34.381082 161.507486,32.6918138 161.507409,31.0025455 C161.507409,29.008471 161.515898,27.01432 161.5,25.0203219 C161.497145,24.6517279 161.575706,24.4835115 161.98672,24.5173534 C162.471587,24.5573067 163.013407,24.4160569 163.433991,24.5863359 C163.873945,24.7644069 164.089561,25.3089329 164.396086,25.697771 C166.149032,27.9217106 167.892564,30.1529076 169.640109,32.3809725 C169.700225,32.4575942 169.742824,32.5556822 169.856343,32.5911284 C169.958903,32.4603444 169.912137,32.3167264 169.912292,32.1854076 C169.915687,29.7976823 169.914453,27.4098042 169.915147,25.0220025 C169.915302,24.5269025 169.917076,24.5260622 170.430189,24.5248399 C170.841512,24.5238468 171.252989,24.5335486 171.663849,24.5226245 C171.913421,24.5159019 172.005178,24.6138372 171.999776,24.8594392 C171.988123,25.3925828 171.996921,25.9262611 171.996921,26.4597102 C171.996998,29.6096039 171.997075,32.7594975 171.996766,35.9093912 C171.996766,36.461251 171.988046,36.4045677 171.461429,36.4762239 C170.552582,36.5997506 170.000884,36.2362749 169.461148,35.5180322 C167.661127,33.1228205 165.780462,30.7867365 163.929817,28.4287279 C163.860594,28.3404946 163.781416,28.2597476 163.679087,28.1440893" id="Fill-20" fill="#FEFEFE"></path>
                <path d="M130.006913,30.4705581 C130.006836,28.6345333 130.014463,26.7985086 130,24.9625604 C129.99736,24.619015 130.089963,24.4798641 130.451901,24.5023276 C130.886564,24.5293144 131.324695,24.522951 131.760283,24.5041676 C132.064594,24.4909808 132.160895,24.6061349 132.15843,24.9032201 C132.147182,26.2546318 132.153576,27.6061969 132.154732,28.9576854 C132.155117,29.4706652 132.156427,29.4723519 132.652954,29.4725819 C134.244153,29.4734252 135.835429,29.4648385 137.426629,29.4794053 C137.758135,29.482472 137.872463,29.3933081 137.868072,29.0503759 C137.850275,27.6735873 137.868919,26.2963388 137.854975,24.9194735 C137.851816,24.6032982 137.95274,24.4881441 138.272228,24.5036309 C138.707585,24.5247144 139.14533,24.5241777 139.580687,24.5040142 C139.905183,24.4889108 140.002716,24.6214683 140,24.9289036 C139.989234,26.1272877 139.997092,27.3258252 139.997092,28.5243627 C139.997015,31.0106015 139.996938,33.4968404 139.995243,35.9830792 C139.994935,36.4869357 139.991622,36.4879324 139.474756,36.490079 C139.089707,36.4917657 138.703039,36.4678456 138.320224,36.4966724 C137.934404,36.5256526 137.848812,36.3654949 137.853588,36.0101427 C137.871539,34.6461575 137.848349,33.2816357 137.868842,31.9176505 C137.874389,31.5440515 137.753358,31.4423142 137.387338,31.4463776 C135.809081,31.4639343 134.23044,31.4645477 132.652261,31.4461476 C132.273066,31.4417009 132.138784,31.5382248 132.145487,31.9355139 C132.168599,33.2993458 132.144716,34.6639443 132.160048,36.0280061 C132.1639,36.3713216 132.064055,36.5151492 131.703889,36.4956757 C131.268917,36.4722156 130.831018,36.4768156 130.395507,36.4944491 C130.091273,36.5067925 129.999826,36.3900284 130.001598,36.0932499 C130.012229,34.2191215 130.00699,32.3447632 130.006913,30.4705581" id="Fill-22" fill="#FEFEFE"></path>
                <path d="M54.7487208,24.5010187 C56.4169483,24.5217202 57.7144086,24.9189333 58.8735051,25.7607412 C59.1002181,25.9253811 59.1245515,26.048618 58.9531691,26.2651235 C58.7064652,26.5768405 58.4743614,26.9020098 58.2605264,27.237044 C58.1034445,27.4830695 57.9668776,27.4989879 57.7239922,27.3336008 C56.7772333,26.6889421 55.7535806,26.2701307 54.5735199,26.3636234 C54.2319529,26.3906772 53.9102271,26.4749776 53.6176265,26.6537422 C52.7583932,27.1786764 52.7521788,28.3084358 53.6098398,28.8318006 C54.1158261,29.1406778 54.6853041,29.2885771 55.2531348,29.433487 C55.9412852,29.6089633 56.6327299,29.7711369 57.2934022,30.0391343 C58.9095186,30.6949284 59.5914546,31.7011519 59.4902273,33.2878373 C59.3979099,34.7344705 58.4133405,35.8944973 56.8816051,36.2826676 C54.8975668,36.7854805 53.053165,36.3964133 51.340763,35.316427 C51.0888929,35.1575417 50.860982,34.9612145 50.6201181,34.7847667 C50.4638598,34.6703484 50.4661809,34.5575742 50.5915918,34.4145326 C50.8785769,34.0871961 51.16676,33.7597101 51.4324815,33.4155583 C51.6085809,33.1874691 51.7396821,33.175661 51.9687161,33.3652621 C52.7793574,34.0363767 53.6927982,34.4998046 54.756807,34.6200522 C55.2938653,34.6808112 55.8277041,34.6772239 56.347991,34.5085485 C57.0059678,34.2952566 57.3932817,33.8182271 57.4133475,33.2188575 C57.4292952,32.7423512 57.2444358,32.3766759 56.8367567,32.1231022 C56.2552243,31.7613878 55.5995685,31.6042962 54.9458593,31.4449625 C54.3281637,31.294298 53.7117409,31.1410926 53.1185285,30.9087434 C51.5115465,30.2794053 50.8431624,29.3278126 50.9022366,27.7542058 C50.9562194,26.3144482 51.8999835,25.1675746 53.4049895,24.71588 C53.9222815,24.560582 54.4514782,24.4905559 54.7487208,24.5010187" id="Fill-24" fill="#FEFEFE"></path>
                <path d="M117.502062,30.5499668 C117.507322,27.4475781 119.484836,25.0591824 122.478482,24.5931666 C124.36191,24.3000217 126.111617,24.6835765 127.602106,25.9584524 C128.01127,26.3083542 128.0149,26.3111029 127.672041,26.7019381 C127.419638,26.9895856 127.152418,27.2657926 126.919647,27.5686694 C126.738735,27.8040917 126.605088,27.7968114 126.389653,27.6056654 C125.742607,27.0318561 125.01429,26.601722 124.143363,26.4652529 C122.067466,26.1399408 120.305164,27.3094004 119.789616,29.351163 C119.282143,31.3607585 120.142699,33.4580151 121.858624,34.2320336 C123.512245,34.9779709 125.009697,34.5888444 126.354686,33.446426 C126.768295,33.0951127 126.765183,33.0949641 127.155456,33.4976855 C127.396079,33.7458855 127.63811,33.9930455 127.888143,34.2316622 C128.035273,34.3720686 128.037421,34.4820909 127.893625,34.6334921 C125.280769,37.384716 120.470297,37.0745589 118.433812,33.8348839 C117.794099,32.8172713 117.470873,31.7027114 117.502062,30.5499668" id="Fill-26" fill="#FEFEFE"></path>
                <path d="M24.5,20.0240017 C24.452577,20.0812516 24.40228,20.152871 24.3414697,20.2139984 C22.9622711,21.6000092 21.5789126,22.9818383 20.2054623,24.3735512 C20.0241659,24.5573136 19.9169916,24.529867 19.7505952,24.3616146 C18.3846327,22.9802417 17.0145103,21.6028983 15.6359924,20.2341461 C15.4420651,20.0415644 15.4646042,19.9293454 15.6461275,19.7488523 C17.0147372,18.3880072 18.3788089,17.0225244 19.7316109,15.6458652 C19.9396063,15.4342002 20.0510162,15.4654481 20.24154,15.6587902 C21.5876106,17.0244251 22.9448751,18.3788077 24.2970721,19.7384363 C24.3746733,19.8164422 24.4773852,19.8793943 24.5,20.0240017" id="Fill-28" fill="#FEFEFE"></path>
                <path d="M9,19.987084 C8.99167337,20.0850793 8.91900455,20.1417933 8.85784163,20.2031449 C7.46820198,21.5980372 6.07598864,22.9903447 4.68990673,24.3887342 C4.53692374,24.5430634 4.43397625,24.53242 4.2869733,24.3842488 C2.90021012,22.9865435 1.51057047,21.5916512 0.115177865,20.2025367 C-0.0558966324,20.0322424 -0.0243311168,19.9244401 0.130544291,19.7700349 C1.50716412,18.3978738 2.88083177,17.0226717 4.24715685,15.6403234 C4.43306789,15.4522395 4.55304713,15.453912 4.73827691,15.6412357 C6.09574547,17.0146892 7.46244903,18.3790198 8.82529206,19.7470756 C8.89523579,19.8172459 8.98031886,19.8787495 9,19.987084" id="Fill-30" fill="#FEFEFE"></path>
                <path d="M31,19.9986956 C31.0662224,19.9168885 31.1152285,19.8444329 31.1757121,19.7834578 C32.5527907,18.397223 33.9327386,17.0138773 35.3069477,15.6246773 C35.464915,15.4649406 35.5774251,15.4538404 35.7412821,15.6195834 C37.1148872,17.0092395 38.4921923,18.3953222 39.8762177,19.7745624 C40.0600849,19.957716 40.0258788,20.0725957 39.8605871,20.2376544 C38.4870576,21.6095957 37.1173035,22.9853386 35.7539678,24.3673918 C35.5810496,24.5427144 35.4705027,24.5451473 35.2967539,24.3689884 C33.9331916,22.9870872 32.5611723,21.6135493 31.193306,20.2360578 C31.1242897,20.1665674 31.0686387,20.0837719 31,19.9986956" id="Fill-32" fill="#FEFEFE"></path>
                <path d="M106.823488,31.4619491 C106.823188,32.9415845 106.823488,34.4212198 106.823039,35.9008551 C106.822889,36.4981285 106.82214,36.4984356 106.220675,36.4995102 C105.90924,36.5001243 105.597804,36.5002011 105.286369,36.4995102 C104.726818,36.4982053 104.72592,36.4978215 104.72592,35.940003 C104.725695,32.9807323 104.726069,30.0214617 104.72592,27.0622678 C104.72592,26.4861035 104.725246,26.4858732 104.151474,26.4856429 C103.229667,26.4853359 102.307635,26.4754338 101.386128,26.4910929 C101.089661,26.4961591 100.987945,26.391381 101.001118,26.0937806 C101.019156,25.6864894 101.014141,25.2774327 101.002615,24.8696042 C100.99558,24.6176762 101.070052,24.4993883 101.339947,24.5 C104.279836,24.50622 107.219649,24.5052221 110.159612,24.5013073 C110.38692,24.5010003 110.507273,24.5633298 110.499639,24.824469 C110.486466,25.2705242 110.486466,25.7175774 110.499639,26.1635559 C110.507198,26.4212408 110.396052,26.4901718 110.163878,26.4883295 C109.204798,26.4805767 108.245268,26.4997668 107.286487,26.4781971 C106.933512,26.470214 106.811213,26.5699259 106.816003,26.9466664 C106.835014,28.451556 106.823862,29.9568293 106.823488,31.4619491" id="Fill-34" fill="#FEFEFE"></path>
                <path d="M156.508365,30.4659955 C156.508436,28.6318232 156.515135,26.7975742 156.50252,24.9635551 C156.500168,24.619552 156.590755,24.4797121 156.924236,24.5029421 C157.302191,24.5293154 157.68435,24.530772 158.062091,24.5027887 C158.417595,24.4763387 158.501268,24.637952 158.5,24.9913851 C158.490221,27.7171903 158.495495,30.4429189 158.495638,33.1687241 C158.495709,34.1367936 158.486373,35.1049397 158.498774,36.0727792 C158.502765,36.3861924 158.402842,36.5094723 158.107634,36.4949056 C157.728895,36.476199 157.34752,36.4699123 156.969636,36.4968223 C156.618907,36.5217389 156.496035,36.403979 156.500097,36.0066926 C156.51877,34.1599469 156.508365,32.3128945 156.508365,30.4659955" id="Fill-36" fill="#FEFEFE"></path>
                <path d="M62.5036855,14.2775125 C62.2272781,15.1720498 61.4794492,15.4468721 60.6512014,15.5457333 C59.4342745,15.6909592 58.2097778,15.5841711 56.9888037,15.609522 C56.5400914,15.6188697 56.0908545,15.6037638 55.6420672,15.6128124 C55.405682,15.6175984 55.3070507,15.5309266 55.3088494,15.2869891 C55.3165691,14.2434869 55.3187425,13.1997603 55.3074417,12.1563329 C55.3044275,11.8733594 55.4219456,11.7916232 55.686886,11.7951379 C56.4598973,11.8052334 57.2332084,11.7987274 58.1799486,11.7987274 C58.964277,11.8378382 59.9275058,11.7174398 60.8807664,11.8909331 C62.2023954,12.1315802 62.8689809,13.0955896 62.5036855,14.2775125 M55.3086246,5.25317036 C55.3067509,5.01439277 55.3618375,4.8790381 55.6388445,4.88599279 C57.0106884,4.92039232 58.3848558,4.8193624 59.754976,4.94761281 C60.7247252,5.03847244 61.3702503,5.51722412 61.5580694,6.26608688 C61.7763173,7.13594623 61.4140198,7.8892211 60.5983632,8.26290467 C60.1112777,8.48612769 59.5933886,8.54744859 59.0652317,8.55029029 C58.5658547,8.55298242 58.0664777,8.55081376 57.5671756,8.5510381 C56.9429357,8.55118766 56.3185458,8.54079302 55.6946806,8.55567456 C55.4002108,8.56277881 55.3028536,8.45299945 55.3067509,8.16322082 C55.3196419,7.19337849 55.3159695,6.22316225 55.3086246,5.25317036 M63.9367618,10.1755932 C63.7266082,10.0725442 63.5138315,9.97487941 63.2503151,9.85021852 C63.4816789,9.68330603 63.6720462,9.55124175 63.8569424,9.41184889 C65.8447071,7.91300165 66.0561348,4.83992734 64.290815,3.08353233 C63.1485361,1.94700186 61.7000205,1.55671678 60.156696,1.53091714 C57.4233509,1.48522559 54.6888065,1.51790514 51.9547868,1.5 C51.5782492,1.49756455 51.5004534,1.63613482 51.5009781,1.97863446 C51.5095971,7.48816748 51.5101217,12.9977753 51.5,18.5073831 C51.4993292,18.8733641 51.5891167,19.0022876 51.9786202,19 C54.6627247,18.9838913 57.3469791,18.9911451 60.0311585,18.9913695 C61.1625701,18.991519 62.2713474,18.8510792 63.3407771,18.4652063 C64.3543707,18.0995243 65.213572,17.5240801 65.7995886,16.6047153 C67.2415837,14.3423481 66.3775858,11.3735193 63.9367618,10.1755932" id="Fill-38" fill="#FEFEFE"></path>
                <path d="M109.141766,12.0211725 C107.844353,12.006284 106.546715,12.0145299 105.249077,12.0156752 C105.060658,12.0159043 104.878313,12.0322435 104.998427,11.7362287 C105.702692,10.001599 106.401858,8.26483141 107.104099,6.52936182 C107.117595,6.49607256 107.148186,6.469884 107.186049,6.42040823 C107.328207,6.51348071 107.345677,6.64679042 107.391338,6.75956159 C108.050916,8.38958976 108.703221,10.0225956 109.369323,11.6497988 C109.480365,11.9209993 109.476916,12.0249901 109.141766,12.0211725 M116.40005,19.0968951 C115.60986,17.2045995 114.818022,15.3129147 114.026333,13.42123 C112.42841,9.6028151 110.825688,5.78638537 109.239386,1.96300766 C109.095279,1.61560834 108.914433,1.48932296 108.544569,1.50069933 C107.658858,1.52803317 106.771423,1.52520816 105.885487,1.5015392 C105.553861,1.49268242 105.403831,1.62003672 105.280193,1.9193346 C104.245577,4.42305299 103.196415,6.9205869 102.150552,9.41949514 C100.801779,12.642292 99.4514324,15.864478 98.1031847,19.0875038 C97.9367344,19.4853715 97.9411581,19.491556 98.3457373,19.4923958 C99.4070456,19.494381 100.468504,19.4844553 101.529587,19.4985803 C101.813902,19.5023215 101.949387,19.3916882 102.051357,19.1293444 C102.477904,18.031868 102.931369,16.9451571 103.358516,15.8478333 C103.456287,15.5965605 103.589822,15.5056259 103.855843,15.5067712 C106.07833,15.5161624 108.300892,15.5183003 110.523303,15.5048624 C110.830487,15.50303 110.960198,15.6258032 111.065317,15.8976145 C111.480843,16.9722619 111.928384,18.0341585 112.338887,19.1107147 C112.453902,19.4123795 112.617203,19.5114837 112.922812,19.4989621 C113.446381,19.4774309 113.971374,19.4930066 114.495768,19.493083 C115.045204,19.493083 115.594565,19.4948391 116.144001,19.4925485 C116.559152,19.4908688 116.562676,19.4864404 116.40005,19.0968951" id="Fill-40" fill="#FEFEFE"></path>
                <path d="M95.6228777,30.3861803 C94.5600801,30.4295 93.4944677,30.4017447 92.4301485,30.410562 C92.2004717,30.4124788 92.1165586,30.3088181 92.1193734,30.0856256 C92.1262965,29.53742 92.1216558,28.9890611 92.1212754,28.4407022 C92.1209711,27.9051475 92.1288831,27.3694395 92.1175476,26.8341148 C92.11207,26.5761131 92.2016889,26.4654753 92.468111,26.4686188 C93.5197253,26.4810397 94.5730893,26.4460772 95.6228777,26.4934606 C96.998048,26.5554883 97.7878808,27.5677135 97.5280013,28.8588719 C97.3565996,29.7100856 96.6093699,30.3460041 95.6228777,30.3861803 M99.8269763,36.0796978 C98.9765861,34.8747189 98.1236092,33.6715035 97.2700999,32.4686715 C96.9236446,31.9804235 96.9223513,31.9814202 97.4594558,31.7566943 C99.8921744,30.7385653 100.541797,27.4959484 98.6709842,25.6701555 C97.7680247,24.7889629 96.624281,24.5327247 95.4211211,24.5149368 C93.7751923,24.4904784 92.1284266,24.521684 90.4824217,24.5001391 C90.0827124,24.4949254 89.9967453,24.6357721 90,25.0075551 C90.0164492,26.8295911 90.0074721,28.6518572 90.0075482,30.4740465 C90.0077004,32.3344186 90.014243,34.1948674 90.0016142,36.0551628 C89.999408,36.3892998 90.1071332,36.5129719 90.4386774,36.4964874 C90.8555801,36.4757093 91.2751455,36.4751726 91.6919721,36.4965641 C92.028233,36.5138153 92.1297199,36.3808659 92.1250031,36.0511758 C92.1094834,34.9555314 92.1344367,33.8591969 92.1119179,32.7638591 C92.104158,32.3858656 92.2331088,32.2803648 92.5914321,32.2973093 C93.1474038,32.3236845 93.7063425,32.3221511 94.2624664,32.2973093 C94.5774257,32.2832783 94.7705095,32.390926 94.9488343,32.6516878 C95.7598165,33.8375753 96.5963607,35.0058283 97.4097775,36.1901823 C97.5655834,36.4170551 97.7394958,36.5050747 98.0076677,36.4967941 C98.5390665,36.4803863 99.0713782,36.4945706 99.6031574,36.4885135 C99.7366728,36.4869801 99.9178124,36.5476277 99.9868905,36.4046342 C100.044481,36.2851791 99.8978802,36.1801383 99.8269763,36.0796978" id="Fill-42" fill="#FEFEFE"></path>
                <path d="M149.594816,31.7348802 C149.048926,31.7236004 148.502663,31.7315267 147.956549,31.7313743 C147.41051,31.7311457 146.864396,31.7269539 146.318282,31.7331272 C146.095153,31.7356423 146.026022,31.6646865 146.120658,31.4409202 C146.69086,30.0925305 147.254872,28.7414732 147.82388,27.39255 C147.855425,27.3178596 147.872428,27.194773 147.981681,27.2176374 C148.033809,27.2285361 148.080418,27.3228898 148.108533,27.3888155 C148.676796,28.7241725 149.239913,30.061816 149.81004,31.3964109 C149.914072,31.6398405 149.871415,31.7405963 149.594816,31.7348802 M153.940906,36.1416118 C153.630226,35.4511832 153.341098,34.7506942 153.042947,34.0544733 C151.731095,30.9907203 150.416559,27.9282628 149.111942,24.8613088 C149.002465,24.6037032 148.86301,24.4880856 148.583055,24.5030236 C148.199142,24.5236016 147.812321,24.5271075 147.429004,24.5020329 C147.130853,24.4824457 146.990204,24.6041605 146.875209,24.8777711 C146.151383,26.6002986 145.409733,28.3151284 144.674646,30.0328544 C143.805547,32.0639751 142.941296,34.0972297 142.064069,36.1246159 C141.938111,36.4156797 141.988524,36.5078232 142.299055,36.4981439 C142.757916,36.4837394 143.218044,36.4835869 143.676905,36.4994396 C143.938888,36.5084329 144.080208,36.4098111 144.179467,36.1584552 C144.476351,35.4068262 144.801051,34.6667057 145.10569,33.9182015 C145.185262,33.7227109 145.28482,33.6134953 145.513393,33.6146385 C147.152256,33.62226 148.791194,33.621193 150.429983,33.6154769 C150.633648,33.614791 150.746703,33.6916153 150.822621,33.8830666 C151.041275,34.4347845 151.266045,34.9842922 151.501851,35.5286173 C152.009633,36.7006463 151.650256,36.4659813 152.857553,36.4939521 C153.190382,36.4939521 153.451395,36.486102 153.711737,36.4960861 C153.991915,36.5067562 154.066863,36.421472 153.940906,36.1416118" id="Fill-44" fill="#FEFEFE"></path>
                <path d="M83.1670475,31.7334232 C82.0496087,31.7299903 80.93217,31.7318952 79.8147312,31.7314381 C79.656812,31.7313619 79.5309538,31.7011886 79.6188607,31.4915 C80.222801,30.0495098 80.8268905,28.6075957 81.4309054,27.1656816 C81.463041,27.1683484 81.4952511,27.1710915 81.5273867,27.1737583 C81.9610308,28.1937045 82.3950477,29.2134221 82.8280953,30.2335969 C83.0007029,30.6403257 83.1679422,31.0494167 83.3436068,31.454774 C83.4278602,31.6492998 83.382602,31.7341049 83.1670475,31.7334232 M87.4306426,36.0878106 C87.0071388,35.1295824 86.6004111,34.1636585 86.1879422,33.2003251 C84.9952718,30.4150171 83.800141,27.6307759 82.6153741,24.8419629 C82.51002,24.5939482 82.3726795,24.4939042 82.1105247,24.5067811 C81.7388404,24.5249917 81.3635027,24.5366495 80.993757,24.5038857 C80.6449628,24.4729505 80.493754,24.6275502 80.3635713,24.9382734 C79.6269878,26.6967014 78.8691545,28.4459861 78.1189263,30.198471 C77.2792256,32.1598825 76.4390775,34.1210655 75.6009425,36.0832389 C75.4348216,36.4722906 75.4458566,36.4895868 75.8471414,36.4936252 C76.2941318,36.4980445 76.741495,36.4840246 77.188038,36.499416 C77.447807,36.5083308 77.5923053,36.4160587 77.692291,36.1622531 C77.9884454,35.4103609 78.316139,34.6714219 78.6174381,33.9214346 C78.7048976,33.7036693 78.8248655,33.6135306 79.0607005,33.6147497 C80.6748615,33.623055 82.2891717,33.6246551 83.9033328,33.6133782 C84.1624306,33.6115495 84.2775521,33.7214989 84.3651607,33.9487124 C84.5696057,34.4789533 84.7854585,35.0050036 85.0113024,35.5261011 C85.5212219,36.7027042 85.1773487,36.4657378 86.3751637,36.4940823 C86.6892872,36.4940823 86.9380957,36.484558 87.1858604,36.4964444 C87.5254091,36.5126739 87.5595578,36.3797137 87.4306426,36.0878106" id="Fill-46" fill="#FEFEFE"></path>
            </g>
        </g>
    </g>
</svg>