<svg width="56" height="56" viewBox="0 0 56 56" fill="none" xmlns="http://www.w3.org/2000/svg">
<path opacity="0.6" fill-rule="evenodd" clip-rule="evenodd" d="M35.7703 31.2987C41.3 27.9768 45.0001 21.9204 45.0001 14.9999C45.0001 14.3368 44.9661 13.6817 44.8998 13.0361C50.5541 13.4939 55.0001 18.2277 55.0001 23.9999C55.0001 30.075 50.0752 34.9999 44.0001 34.9999C40.7256 34.9999 37.7853 33.5691 35.7703 31.2987Z" fill="white"/>
<path opacity="0.8" fill-rule="evenodd" clip-rule="evenodd" d="M24.8399 33.965C16.9848 33.4919 10.4168 28.2463 7.99684 21.0894C3.86748 22.986 1 27.1581 1 31.9998C1 38.6272 6.37258 43.9998 13 43.9998C18.9582 43.9998 23.9021 39.6575 24.8399 33.965Z" fill="white"/>
<path fill-rule="evenodd" clip-rule="evenodd" d="M26 0C28.9667 0 31.8668 0.879735 34.3335 2.52796C36.8003 4.17618 38.7229 6.51885 39.8582 9.25975C40.9935 12.0006 41.2906 15.0166 40.7118 17.9263C40.133 20.8361 38.7044 23.5088 36.6066 25.6066C34.5088 27.7044 31.8361 29.133 28.9264 29.7118C26.0166 30.2906 23.0006 29.9935 20.2597 28.8582C17.5189 27.7229 15.1762 25.8003 13.528 23.3335C11.8797 20.8668 11 17.9667 11 15C11 11.0218 12.5804 7.20644 15.3934 4.3934C18.2064 1.58035 22.0218 0 26 0ZM18.3384 18.3747L22.051 18.0048C22.473 20.3486 23.7137 21.6106 26.1522 21.6106C27.7548 21.6106 29.8448 20.9615 29.8448 19.0184C29.8448 16.9952 26.5849 16.6146 25.0572 16.2393C22.0483 15.4861 19.0475 14.1653 19.0475 10.5609C19.0475 7.34375 21.5849 5.78926 24.3894 5.39263V3.27457H27.5945V5.3953C30.6327 5.81597 32.9738 7.47195 33.0994 11.0483L29.2826 11.1819C28.9434 9.14663 27.8563 8.44284 25.8504 8.44284C24.6886 8.44284 22.6733 8.79006 22.6733 10.3031C22.6733 11.9324 25.5486 12.4399 26.7278 12.7163C30.3884 13.5777 33.6536 14.6648 33.6536 18.9931C33.6536 22.7324 30.777 24.3656 27.5959 24.7356V26.7214H24.3974V24.7089C20.976 24.2441 18.8072 22.2783 18.3411 18.3681L18.3384 18.3747Z" fill="white"/>
</svg>
