<?xml version="1.0" encoding="UTF-8"?>
<svg width="167px" height="65px" viewBox="0 0 167 65" version="1.1" xmlns="http://www.w3.org/2000/svg" xmlns:xlink="http://www.w3.org/1999/xlink">
    <title>Group 33@</title>
    <defs>
        <polygon id="path-1" points="0 0 19.974283 0 19.974283 28.1138703 0 28.1138703"></polygon>
        <polygon id="path-3" points="0 0 19.974283 0 19.974283 20.8609897 0 20.8609897"></polygon>
        <polygon id="path-5" points="0 0 19.974283 0 19.974283 33.1029578 0 33.1029578"></polygon>
        <polygon id="path-7" points="5.77996225e-15 0 19.9744457 0 19.9744457 28.1138703 5.77996225e-15 28.1138703"></polygon>
    </defs>
    <g id="FS---Landing-page" stroke="none" stroke-width="1" fill="none" fill-rule="evenodd">
        <g id="Desktop-V1-Copy-4" transform="translate(-758.000000, -1634.000000)">
            <g id="Group-33" transform="translate(758.000000, 1634.000000)">
                <path d="M57.8812338,34.3672922 C57.6827502,32.0906615 55.9313764,30.0106563 53.5186619,30.0106563 C51.1067608,30.0106563 49.3887388,32.0906615 49.1577169,34.3672922 L57.8812338,34.3672922 Z M58.8720248,34.8287933 C58.8720248,35.093669 58.6410029,35.2919195 58.3766293,35.2919195 L49.1577169,35.2919195 C49.3887388,37.5685502 51.1067608,39.6485554 53.5186619,39.6485554 C55.1707938,39.6485554 56.3942337,39.0213038 57.3191347,37.700988 C57.41919,37.5685502 57.5501566,37.4702374 57.7152885,37.4702374 C57.9804756,37.4702374 58.1789592,37.6676754 58.1789592,37.9317386 C58.1789592,38.0308638 58.1447939,38.0966765 58.1122557,38.1633017 C57.1865412,39.7809932 55.3367391,40.5731827 53.5186619,40.5731827 C50.4120682,40.5731827 48.1986507,37.8009258 48.1986507,34.8287933 C48.1986507,31.8582859 50.4120682,29.086029 53.5186619,29.086029 C56.6252556,29.086029 58.8720248,31.8582859 58.8720248,34.8287933 L58.8720248,34.8287933 Z" id="Fill-1" fill="#FFFFFF"></path>
                <path d="M70.0747157,29.3173483 C70.3382759,29.3173483 70.5375729,29.5480989 70.5375729,29.7788494 C70.5375729,30.0437251 70.3382759,30.2419756 70.0747157,30.2419756 L67.5969245,30.2419756 L67.5969245,39.9456874 C67.5969245,40.1764379 67.3976275,40.4071885 67.1340673,40.4071885 C66.8696937,40.4071885 66.6712101,40.1764379 66.6712101,39.9456874 L66.6712101,30.2419756 L64.2926607,30.2419756 C64.0274736,30.2419756 63.82899,30.0437251 63.82899,29.7788494 C63.82899,29.5480989 64.0274736,29.3173483 64.2926607,29.3173483 L66.6712101,29.3173483 L66.6712101,25.7529019 C66.6712101,25.4888387 66.8696937,25.2905882 67.1340673,25.2905882 C67.3976275,25.2905882 67.5969245,25.4888387 67.5969245,25.7529019 L67.5969245,29.3173483 L70.0747157,29.3173483 Z" id="Fill-3" fill="#FFFFFF"></path>
                <path d="M85.1765518,34.0043475 L85.1765518,39.8795497 C85.1765518,40.1428004 84.9455299,40.3410509 84.7136945,40.3410509 C84.4493209,40.3410509 84.2508373,40.1428004 84.2508373,39.8795497 L84.2508373,34.0043475 C84.2508373,32.0234676 83.1274526,30.0434001 80.9140351,30.0434001 C78.0718151,30.0434001 76.8491887,32.5190938 77.0143205,35.0606002 C77.0143205,35.1264128 77.0476723,35.4237886 77.0476723,35.4571011 L77.0476723,39.8795497 C77.0476723,40.1428004 76.8491887,40.3410509 76.5840016,40.3410509 C76.3204414,40.3410509 76.1227712,40.1428004 76.1227712,39.8795497 L76.1227712,20.5712514 C76.1227712,20.3405009 76.3204414,20.1081253 76.5840016,20.1081253 C76.8491887,20.1081253 77.0476723,20.3405009 77.0476723,20.5712514 L77.0476723,31.4953412 C77.8399797,30.0775252 79.2619032,29.1187728 80.9140351,29.1187728 C83.6236616,29.1187728 85.1765518,31.4953412 85.1765518,34.0043475" id="Fill-5" fill="#FFFFFF"></path>
                <path d="M100.740676,34.3672922 C100.542192,32.0906615 98.7908183,30.0106563 96.3781038,30.0106563 C93.9662027,30.0106563 92.2481807,32.0906615 92.0171588,34.3672922 L100.740676,34.3672922 Z M101.731467,34.8287933 C101.731467,35.093669 101.500445,35.2919195 101.236885,35.2919195 L92.0171588,35.2919195 C92.2481807,37.5685502 93.9662027,39.6485554 96.3781038,39.6485554 C98.0302357,39.6485554 99.2536756,39.0213038 100.17939,37.700988 C100.278632,37.5685502 100.409599,37.4702374 100.575544,37.4702374 C100.840731,37.4702374 101.038401,37.6676754 101.038401,37.9317386 C101.038401,38.0308638 101.004236,38.0966765 100.971698,38.1633017 C100.045983,39.7809932 98.196181,40.5731827 96.3781038,40.5731827 C93.2723235,40.5731827 91.0580926,37.8009258 91.0580926,34.8287933 C91.0580926,31.8582859 93.2723235,29.086029 96.3781038,29.086029 C99.4846975,29.086029 101.731467,31.8582859 101.731467,34.8287933 L101.731467,34.8287933 Z" id="Fill-7" fill="#FFFFFF"></path>
                <path d="M113.066426,29.7465931 C113.066426,30.0439689 112.901294,30.2089068 112.63692,30.2414069 C109.927294,30.6379078 108.703854,32.8487259 108.703854,35.4235448 L108.703854,39.8468059 C108.703854,40.1100565 108.506184,40.3091195 108.24181,40.3091195 C107.977436,40.3091195 107.778953,40.1100565 107.778953,39.8468059 L107.778953,29.7790932 C107.778953,29.5158425 107.977436,29.317592 108.24181,29.317592 C108.506184,29.317592 108.703854,29.5158425 108.703854,29.7790932 L108.703854,31.8257858 C109.463623,30.5387826 110.984788,29.317592 112.570217,29.317592 C112.802052,29.317592 113.066426,29.48253 113.066426,29.7465931" id="Fill-9" fill="#FFFFFF"></path>
                <path d="M127.242791,34.3672922 C127.045121,32.0906615 125.293748,30.0106563 122.881033,30.0106563 C120.468318,30.0106563 118.75111,32.0906615 118.519275,34.3672922 L127.242791,34.3672922 Z M128.234396,34.8287933 C128.234396,35.093669 128.003374,35.2919195 127.739,35.2919195 L118.519275,35.2919195 C118.75111,37.5685502 120.468318,39.6485554 122.881033,39.6485554 C124.533165,39.6485554 125.756605,39.0213038 126.681506,37.700988 C126.781561,37.5685502 126.912528,37.4702374 127.07766,37.4702374 C127.342847,37.4702374 127.540517,37.6676754 127.540517,37.9317386 C127.540517,38.0308638 127.507165,38.0966765 127.473813,38.1633017 C126.548912,39.7809932 124.698297,40.5731827 122.881033,40.5731827 C119.774439,40.5731827 117.561022,37.8009258 117.561022,34.8287933 C117.561022,31.8582859 119.774439,29.086029 122.881033,29.086029 C125.986813,29.086029 128.234396,31.8582859 128.234396,34.8287933 L128.234396,34.8287933 Z" id="Fill-11" fill="#FFFFFF"></path>
                <path d="M143.137748,29.8453934 L143.137748,33.0466514 L143.137748,39.9456061 C143.137748,40.2088568 142.906726,40.4071073 142.675705,40.4071073 C142.410517,40.4071073 142.212034,40.2088568 142.212034,39.9456061 L142.212034,38.0313513 C141.453078,39.5499176 140.098672,40.6386703 138.379023,40.6386703 C135.636045,40.6386703 134.116506,38.2621019 134.116506,35.7530956 L134.116506,29.8453934 C134.116506,29.6146428 134.314176,29.3830797 134.57855,29.3830797 C134.843737,29.3830797 135.041407,29.6146428 135.041407,29.8453934 L135.041407,35.7530956 C135.041407,37.7339756 136.165605,39.7148555 138.379023,39.7148555 C141.485616,39.7148555 142.212034,36.8101608 142.212034,33.6089028 L142.212034,29.8453934 C142.212034,29.6146428 142.410517,29.3830797 142.675705,29.3830797 C142.906726,29.3830797 143.137748,29.6146428 143.137748,29.8453934" id="Fill-13" fill="#FFFFFF"></path>
                <path d="M166.5,33.9713599 L166.5,39.8790622 C166.5,40.1439379 166.268978,40.3413759 166.03877,40.3413759 C165.772769,40.3413759 165.575099,40.1439379 165.575099,39.8790622 L165.575099,33.9713599 C165.575099,31.99048 164.450901,30.0445376 162.237483,30.0445376 C159.461967,30.0445376 158.404472,33.0142325 158.404472,35.3241758 L158.404472,39.8790622 C158.404472,40.1439379 158.17345,40.3413759 157.941615,40.3413759 C157.677241,40.3413759 157.478758,40.1439379 157.478758,39.8790622 L157.478758,33.9713599 C157.478758,31.99048 156.355373,30.0445376 154.141956,30.0445376 C151.333087,30.0445376 150.176351,32.2553556 150.275593,35.1925505 C150.275593,35.2583631 150.308131,35.390801 150.275593,35.4241136 L150.275593,39.8790622 C150.275593,40.1439379 150.077923,40.3413759 149.811922,40.3413759 C149.548362,40.3413759 149.349878,40.1439379 149.349878,39.8790622 L149.349878,29.7796619 C149.349878,29.5155988 149.548362,29.3173483 149.811922,29.3173483 C150.077923,29.3173483 150.275593,29.5155988 150.275593,29.7796619 L150.275593,31.4623537 C151.0679,30.0445376 152.48901,29.1199103 154.141956,29.1199103 C156.025109,29.1199103 157.478758,30.3077883 158.074209,32.0579176 C158.833164,30.3402884 160.320164,29.1199103 162.237483,29.1199103 C164.947923,29.1199103 166.5,31.4623537 166.5,33.9713599" id="Fill-15" fill="#FFFFFF"></path>
                <g id="Group-19" transform="translate(0.000000, 36.886130)">
                    <mask id="mask-2" fill="white">
                        <use xlink:href="#path-1"></use>
                    </mask>
                    <g id="Clip-18"></g>
                    <polygon id="Fill-17" fill="#E6E6E6" mask="url(#mask-2)" points="-0.000162691474 0 19.974283 28.1141953 19.974283 11.786967"></polygon>
                </g>
                <g id="Group-22" transform="translate(0.000000, 24.034623)">
                    <mask id="mask-4" fill="white">
                        <use xlink:href="#path-3"></use>
                    </mask>
                    <g id="Clip-21"></g>
                    <polygon id="Fill-20" fill="#CCCCCC" mask="url(#mask-4)" points="-0.000162691474 9.06833517 19.974283 20.8609897 19.974283 0"></polygon>
                </g>
                <g id="Group-25">
                    <mask id="mask-6" fill="white">
                        <use xlink:href="#path-5"></use>
                    </mask>
                    <g id="Clip-24"></g>
                    <polygon id="Fill-23" fill="#E6E6E6" mask="url(#mask-6)" points="-0.000162691474 33.1029578 19.974283 24.0346226 19.974283 0"></polygon>
                </g>
                <g id="Group-28" transform="translate(19.973795, 36.886130)">
                    <mask id="mask-8" fill="white">
                        <use xlink:href="#path-7"></use>
                    </mask>
                    <g id="Clip-27"></g>
                    <polygon id="Fill-26" fill="#CCCCCC" mask="url(#mask-8)" points="19.9744457 0 5.77996225e-15 28.1141953 5.77996225e-15 11.786967"></polygon>
                </g>
                <polygon id="Fill-29" fill="#808080" points="39.9482407 33.1029578 19.9737949 44.8956122 19.9737949 24.0346226"></polygon>
                <polygon id="Fill-31" fill="#CCCCCC" points="39.9482407 33.1029578 19.9737949 24.0346226 19.9737949 0"></polygon>
            </g>
        </g>
    </g>
</svg>