<?xml version="1.0" encoding="UTF-8"?>
<svg width="171px" height="40px" viewBox="0 0 171 40" version="1.1" xmlns="http://www.w3.org/2000/svg" xmlns:xlink="http://www.w3.org/1999/xlink">
    <title>Group 16@</title>
    <defs>
        <polygon id="path-1" points="0 0 24 0 24 40 0 40"></polygon>
    </defs>
    <g id="FS---Landing-page" stroke="none" stroke-width="1" fill="none" fill-rule="evenodd" opacity="0.799999952">
        <g id="Desktop-V1-Copy-4" transform="translate(-760.000000, -1819.000000)">
            <g id="Group-16" transform="translate(760.000000, 1819.000000)">
                <g id="Group-3">
                    <mask id="mask-2" fill="white">
                        <use xlink:href="#path-1"></use>
                    </mask>
                    <g id="Clip-2"></g>
                    <path d="M13.0791325,19.986417 C13.0791325,21.3024178 13.0845776,22.6185136 13.0751203,23.9345144 C13.0729231,24.250621 13.0972828,24.3869788 13.4543668,24.1792543 C15.7607969,22.8379423 18.0749648,21.5096665 20.3905656,20.1839599 C20.6463899,20.0374204 20.6903328,19.9553012 20.3999274,19.7895403 C18.082225,18.4673545 15.7679615,17.1390787 13.4598119,15.8004309 C13.1222156,15.6046009 13.0711081,15.7028014 13.073974,16.0383197 C13.0852463,17.3542253 13.0785593,18.6703212 13.0791325,19.986417 L13.0791325,19.986417 Z M21.7913895,9.39389581 C21.6939509,9.41092864 21.6588921,9.40835944 21.6337682,9.42282308 C19.2535904,10.7903981 16.8763739,12.1629212 14.4927571,13.5244062 C14.1093074,13.7434542 14.3464081,13.8246219 14.5496918,13.9413777 C16.888697,15.2854493 19.2268425,16.6308531 21.5661343,17.9743537 C21.6308068,18.0114644 21.7006378,18.0637999 21.7913895,18.000236 L21.7913895,9.39389581 Z M10.8884824,15.6512271 C10.7884645,15.6792028 10.7397452,15.683009 10.7015339,15.70499 C8.33501663,17.0663799 5.97184282,18.4335742 3.60112229,19.7877323 C3.25101185,19.9876541 3.39583243,20.0674895 3.63541687,20.2048941 C5.93458686,21.5239398 8.22974468,22.8499318 10.5278639,24.1707855 C10.6311297,24.2301625 10.7245562,24.3416848 10.8884824,24.2812611 L10.8884824,15.6512271 Z M2.2376499,18.0779781 C4.74831908,16.6337077 7.2431306,15.1984772 9.72581004,13.7702881 C9.68702564,13.6118542 9.58509717,13.5857816 9.50571333,13.5400118 C7.21026893,12.2168744 4.91444242,10.8943079 2.61699194,9.57450097 C2.1600811,9.31196691 2.15406283,9.31758109 2.15387177,9.85187928 C2.15282096,12.4339241 2.15272544,15.016064 2.15501811,17.5980137 C2.15511364,17.7368456 2.12053247,17.8825287 2.2376499,18.0779781 L2.2376499,18.0779781 Z M20.6356907,7.49497242 C20.6234631,7.34053502 20.5303232,7.32692778 20.4663194,7.29000745 C17.7418584,5.71870448 15.014627,4.1521593 12.2940827,2.57410029 C12.045232,2.42974938 11.8665945,2.47875447 11.6410527,2.60911752 C9.09723523,4.08022173 6.54778165,5.54162008 4.00205367,7.00958415 C3.77316837,7.14166 3.5134275,7.23215289 3.31453803,7.46005034 C3.39048286,7.51314712 3.4491371,7.5611055 3.51400067,7.59850161 C6.2537462,9.17437204 8.99664416,10.7449138 11.7298938,12.3317271 C11.9777892,12.4756022 12.1361747,12.3946249 12.3327715,12.2811043 C14.3408674,11.1217296 16.3506829,9.96539981 18.3597341,8.80773785 C19.1252961,8.36669206 19.8904761,7.92488502 20.6356907,7.49497242 L20.6356907,7.49497242 Z M2.19170089,21.8727799 C2.17221317,22.0267415 2.15778842,22.0875459 2.1576929,22.1484454 C2.15616445,25.28715 2.15912582,28.4257594 2.14937755,31.5645591 C2.1485222,31.8487886 2.27347294,31.981816 2.50245376,32.11275 C5.54874892,33.855428 8.59227376,35.6030541 11.6283474,37.3631456 C11.9017488,37.5215795 12.0981545,37.5158702 12.3652511,37.3611474 C15.3886195,35.609715 18.4167643,33.8665612 21.4505453,32.1332084 C21.7184061,31.9801983 21.8224361,31.8175776 21.8211943,31.5032789 C21.808298,28.4281382 21.8143163,25.3528073 21.8110683,22.2774763 C21.8109728,22.1639558 21.8749766,22.0234111 21.7121012,21.9275895 C21.5799859,22.0005738 21.4416612,22.0740338 21.3060113,22.1521565 C18.3314577,23.8620059 15.3549936,25.5685248 12.3865538,27.2888413 C12.10637,27.4512718 11.8989785,27.4641178 11.613445,27.2974053 C9.84350065,26.2641116 8.06142419,25.2514666 6.28441072,24.2302577 C4.93841997,23.4568337 3.59395768,22.6806502 2.19170089,21.8727799 L2.19170089,21.8727799 Z M0.00764224694,19.9738565 C0.00773777503,15.7406733 0.0118454828,11.50749 -7.26533978e-06,7.27430679 C-0.000955280868,6.93307912 0.0920890756,6.74305357 0.399880571,6.56730134 C4.13770355,4.43305837 7.86817087,2.28625487 11.5916646,0.127366626 C11.8952529,-0.0486710699 12.1068476,-0.0379184971 12.4022204,0.132980802 C16.1410942,2.29748322 19.8863684,4.45104276 23.6354637,6.59794141 C23.9030379,6.75114178 24.000381,6.92204108 23.9999927,7.23358023 C23.9903505,15.7317287 23.990255,24.2298771 23.9979928,32.7280255 C23.9982794,33.0315716 23.922239,33.2089415 23.6448255,33.3676608 C19.8540799,35.5372065 16.0697348,37.7176951 12.290166,39.906367 C12.0625226,40.0381574 11.9102508,40.0262629 11.6910138,39.8997061 C7.90848372,37.7162677 4.12280117,35.5382532 0.329380843,33.3736556 C0.0390709875,33.2079899 0.00315242686,33.0060699 0.00353453921,32.7211743 C0.00926622442,28.4721001 0.00754671885,24.2229307 0.00764224694,19.9738565 L0.00764224694,19.9738565 Z" id="Fill-1" fill="#FEFEFE" mask="url(#mask-2)"></path>
                </g>
                <path d="M166.375776,18.0132472 C164.396459,20.9802983 162.417236,23.9473495 160.405523,26.9633318 C158.389926,23.9556965 156.409946,21.001118 154.411683,18.0191957 C154.247529,18.2058057 154.309478,18.3865631 154.309288,18.5461171 C154.305215,22.0150484 154.307678,25.4841716 154.305594,28.9531029 C154.305121,29.6734463 154.361386,29.5811487 153.661009,29.5840271 C152.729888,29.5879607 151.798389,29.572226 150.867553,29.5919904 C150.533846,29.5990902 150.399245,29.5308744 150.4,29.1502667 C150.411654,23.0435622 150.410802,16.9367617 150.40114,10.8300571 C150.400572,10.4835094 150.517364,10.3986954 150.836578,10.4051236 C151.720054,10.4229691 152.604665,10.4295892 153.487667,10.4019574 C153.821279,10.3914996 154.00002,10.5251488 154.171846,10.7864988 C156.130894,13.7643915 158.097803,16.7370074 160.064522,19.7098152 C160.166538,19.8639003 160.242411,20.0422592 160.441801,20.1722626 C161.207442,19.0143211 161.968631,17.8627119 162.729819,16.7111027 C164.037366,14.7332285 165.350786,12.759288 166.645451,10.7728748 C166.825613,10.4964617 167.01932,10.3963927 167.337398,10.4035885 C168.18933,10.4227772 169.042494,10.4303567 169.893764,10.401094 C170.282315,10.3876619 170.400812,10.4947348 170.397402,10.8996161 C170.378363,13.1695422 170.388214,15.4396601 170.388309,17.7096821 C170.388309,21.4824663 170.379121,25.2552505 170.4,29.0278429 C170.402707,29.5045859 170.264886,29.6155924 169.818649,29.5983226 C168.904484,29.5629195 167.98814,29.590935 167.072743,29.5869054 C166.407508,29.5839311 166.476372,29.6578076 166.475993,28.9587636 C166.474004,25.4897363 166.47533,22.020805 166.475424,18.5517777 L166.475424,18.045676 C166.442177,18.0348344 166.409024,18.0239928 166.375776,18.0132472" id="Fill-4" fill="#FEFEFE"></path>
                <path d="M95.5665857,22.1610381 L95.5665857,21.5033647 C95.5666801,18.0011148 95.5742329,14.4987689 95.5573334,10.9965189 C95.555162,10.5525366 95.6422086,10.3825049 96.1191711,10.401408 C97.1246443,10.4413251 98.1330442,10.4272198 99.1396504,10.4058219 C99.4756578,10.3987213 99.6007519,10.4645462 99.6,10.8450065 C99.58744,16.9380329 99.5871568,23.0310592 99.5998078,29.1239897 C99.6005631,29.5145252 99.481228,29.6076972 99.1212403,29.5972382 C98.2879721,29.5729616 97.4529101,29.5696992 96.6199251,29.5970462 C96.2703225,29.6084649 96.0816901,29.4505234 95.8859768,29.193173 C92.9993718,25.3991248 90.1049307,21.6112178 87.2119058,17.8222553 C87.1262753,17.7099883 87.0344138,17.602519 86.9266913,17.4697178 C86.7918729,17.6456027 86.8504075,17.8245582 86.8502186,17.9845146 C86.8458758,21.6787699 86.8389838,25.3730252 86.8571106,29.0670885 C86.8591877,29.4968696 86.7391917,29.6098082 86.3317155,29.5993492 C85.3095316,29.5727697 84.2861203,29.5780472 83.2637476,29.5981018 C82.9241526,29.6047226 82.7993417,29.5223935 82.8,29.1495136 C82.8105766,23.0565832 82.8097269,16.9634609 82.8003803,10.8704345 C82.7998138,10.5210635 82.8845001,10.3933478 83.2472258,10.4024635 C84.2065322,10.4264522 85.1669715,10.4235735 86.1263723,10.4030392 C86.4326404,10.3966102 86.6106989,10.5163617 86.7888517,10.7518345 C89.5985121,14.4641292 92.4161029,18.1704748 95.2331273,21.8771082 C95.3067676,21.9740225 95.3558611,22.1002029 95.5665857,22.1610381" id="Fill-6" fill="#FEFEFE"></path>
                <path d="M134.629877,26.1881135 C137.975446,26.1765264 140.574193,23.5499713 140.563439,20.1909941 C140.552618,16.8084515 137.926664,14.1959979 134.554746,14.2132315 C131.193616,14.2306363 128.627614,16.8603145 128.637704,20.2771169 C128.647948,23.6534132 131.22932,26.1999025 134.629877,26.1881135 M134.588255,30 C129.936725,30.0023646 125.870873,27.0298989 124.7441,22.8026907 C123.211983,17.0551791 126.948386,11.4527512 132.927451,10.5323733 C137.18366,9.87717778 141.264023,11.6850934 143.426495,15.2702611 C146.565096,20.4742529 144.226109,27.7351591 137.418408,29.651438 C136.495453,29.9112259 135.544718,29.9879793 134.588255,30" id="Fill-8" fill="#FEFEFE"></path>
                <path d="M67.1795718,16.1619413 C67.1458402,16.2208605 67.1003595,16.2822748 67.0728816,16.3510779 C66.2396373,18.4349391 65.4148258,20.5222548 64.5701165,22.6014139 C64.4259048,22.9565608 64.5387538,23.0004144 64.8546551,22.9983033 C66.3863125,22.9880356 67.9182542,22.9835255 69.4498168,22.9999346 C69.8346972,23.0040609 69.9455564,22.9521467 69.7777516,22.5365452 C68.9538876,20.495482 68.1591124,18.4424239 67.3521142,16.3944517 C67.3191407,16.3106788 67.3221727,16.1969666 67.1795718,16.1619413 M59.792274,29.590256 C59.1926868,29.5904479 58.5918677,29.5683772 57.993607,29.5978368 C57.5564238,29.6193318 57.5324516,29.4823013 57.68557,29.1120887 C58.8227771,26.3626509 59.9454871,23.6069758 61.0696185,20.8519724 C62.4297757,17.5185238 63.7917332,14.1856509 65.1376778,10.8462528 C65.2714668,10.5142322 65.4333971,10.3900604 65.7922209,10.4006159 C66.7225855,10.4282523 67.6547503,10.4285402 68.5850202,10.4007119 C68.9492448,10.3897725 69.1069113,10.5308333 69.2389,10.8560407 C71.6346908,16.7566996 74.0412831,22.6528484 76.445791,28.5498607 C76.5478383,28.8000277 76.6467589,29.051826 76.7566705,29.2984425 C76.848769,29.5052357 76.7976032,29.592559 76.5689679,29.5917913 C75.2749472,29.5876651 73.9808317,29.5819075 72.6869057,29.5932307 C72.4061572,29.5957257 72.3503486,29.4064931 72.2748316,29.216205 C71.9464231,28.3880727 71.6109081,27.5626272 71.3004076,26.7275857 C71.1944755,26.4430652 71.0405991,26.3537267 70.742132,26.355358 C68.375051,26.3682166 66.0078752,26.3680247 63.6407942,26.3563176 C63.3422323,26.3548782 63.1854186,26.4497824 63.0795812,26.7319039 C62.77126,27.5530312 62.4258909,28.3599565 62.125055,29.1837706 C62.0149538,29.4856599 61.8705526,29.6123267 61.54366,29.597453 C60.9609386,29.5709681 60.3762273,29.5900641 59.792274,29.590256" id="Fill-10" fill="#FEFEFE"></path>
                <path d="M40.8098527,19.9862108 C40.8099469,16.9812152 40.8167269,13.9760277 40.802037,10.9711281 C40.8,10.5525896 40.8861274,10.3976286 41.3402912,10.4 C45.1206893,10.4200812 48.9013698,10.41845 52.681862,10.4014666 C53.0967585,10.3996436 53.2138071,10.5075885 53.1987405,10.9313084 C53.1654057,11.8731641 53.1703965,12.8176105 53.1970455,13.75985 C53.2081571,14.1492194 53.1109776,14.2751072 52.7099236,14.2719408 C50.3099085,14.2528466 47.9096109,14.2739558 45.50969,14.2527506 C45.0779378,14.2489126 44.950625,14.3651093 44.9658799,14.8076357 C44.9995915,15.781539 44.9917757,16.7578411 44.9686108,17.7322242 C44.9599475,18.0992371 45.0490287,18.2203273 45.4311554,18.216969 C47.6114806,18.197395 49.7921825,18.2175447 51.9724135,18.1980667 C52.3629209,18.1946124 52.4793104,18.2994869 52.4663155,18.7000827 C52.4367473,19.6101785 52.4375006,20.5226732 52.4658446,21.4327691 C52.4784629,21.8390259 52.389005,21.974221 51.9566878,21.9689437 C49.7921825,21.9430369 47.6271122,21.9672165 45.4625127,21.9476425 C45.0761486,21.9440923 44.9609833,22.0397555 44.9645616,22.4446691 C44.9845249,24.6663201 44.9671983,26.8883549 44.9820765,29.110006 C44.9845249,29.4776905 44.9000577,29.6090475 44.5135995,29.5983969 C43.4633633,29.5692278 42.4108672,29.5616477 41.3611961,29.5988767 C40.8872574,29.6155722 40.7973286,29.4475618 40.8,29.0012934 C40.8187985,25.9963938 40.8098527,22.9912063 40.8098527,19.9862108" id="Fill-12" fill="#FEFEFE"></path>
                <path d="M114.938182,21.9401005 C114.938277,24.3228132 114.928971,26.7056219 114.947298,29.0882388 C114.950432,29.4923144 114.831257,29.6050641 114.440213,29.5958522 C113.380557,29.5708074 112.318907,29.560444 111.260011,29.5989229 C110.807432,29.6154275 110.750647,29.4427046 110.751691,29.0499518 C110.762991,24.316576 110.750077,19.5830083 110.771538,14.8495365 C110.773817,14.3473925 110.634036,14.2360822 110.16332,14.2467335 C108.787259,14.2780155 107.409867,14.2482688 106.03333,14.2645815 C105.698977,14.2686117 105.594521,14.1593165 105.600219,13.826537 C105.617502,12.8193704 105.617217,11.8116281 105.602403,10.8043655 C105.597655,10.4864594 105.711037,10.3995222 106.015193,10.4 C110.541165,10.4080624 115.067232,10.4082543 119.593205,10.4001939 C119.899925,10.3996181 120.00514,10.4878988 119.999632,10.8059968 C119.98197,11.8131634 119.980735,12.8210017 119.999727,13.8281682 C120.005995,14.1620992 119.905432,14.2680359 119.572408,14.2640057 C118.227493,14.2478849 116.882198,14.2573847 115.537093,14.2577685 C114.938657,14.2580564 114.938277,14.2585362 114.938182,14.8879193 C114.938087,17.2386784 114.938182,19.5893414 114.938182,21.9401005" id="Fill-14" fill="#FEFEFE"></path>
            </g>
        </g>
    </g>
</svg>