<svg width="56" height="56" viewBox="0 0 56 56" fill="none" xmlns="http://www.w3.org/2000/svg">
<g clip-path="url(#clip0_1702_2337)">
<path d="M42.25 3.375V32.625C42.2474 33.5193 41.8909 34.3762 41.2586 35.0086C40.6262 35.6409 39.7693 35.9974 38.875 36H16.375C15.4807 35.9974 14.6238 35.6409 13.9914 35.0086C13.3591 34.3762 13.0026 33.5193 13 32.625V3.375C13.0026 2.48071 13.3591 1.6238 13.9914 0.991442C14.6238 0.35908 15.4807 0.00264977 16.375 0H19.75V30.375H16.9375C16.7148 30.3709 16.4935 30.4118 16.2869 30.4951C16.0803 30.5785 15.8927 30.7026 15.7352 30.8602C15.5776 31.0177 15.4535 31.2053 15.3701 31.4119C15.2868 31.6185 15.2459 31.8398 15.25 32.0625V32.625C15.2508 32.9231 15.3696 33.2088 15.5804 33.4196C15.7912 33.6304 16.0769 33.7492 16.375 33.75H38.875C39.1731 33.7492 39.4588 33.6304 39.6696 33.4196C39.8804 33.2088 39.9992 32.9231 40 32.625H16.9375C16.8636 32.625 16.7905 32.6105 16.7222 32.5822C16.654 32.5539 16.592 32.5125 16.5398 32.4602C16.4875 32.408 16.4461 32.346 16.4178 32.2778C16.3895 32.2095 16.375 32.1364 16.375 32.0625C16.375 31.9886 16.3895 31.9155 16.4178 31.8472C16.4461 31.779 16.4875 31.717 16.5398 31.6648C16.592 31.6125 16.654 31.5711 16.7222 31.5428C16.7905 31.5145 16.8636 31.5 16.9375 31.5H40V30.375H20.875V0H38.875C39.7693 0.00264977 40.6262 0.35908 41.2586 0.991442C41.8909 1.6238 42.2474 2.48071 42.25 3.375Z" fill="white"/>
</g>
<defs>
<clipPath id="clip0_1702_2337">
<rect width="29.25" height="36" fill="white" transform="translate(13)"/>
</clipPath>
</defs>
</svg>
