<?xml version="1.0" encoding="UTF-8"?>
<svg width="170px" height="37px" viewBox="0 0 170 37" version="1.1" xmlns="http://www.w3.org/2000/svg" xmlns:xlink="http://www.w3.org/1999/xlink">
    <title>polygon-logo</title>
    <g id="FS---Landing-page" stroke="none" stroke-width="1" fill="none" fill-rule="evenodd" opacity="0.8">
        <g id="Desktop-V1-Copy-4" transform="translate(-964.000000, -1691.000000)" fill="#FFFFFF" fill-rule="nonzero">
            <g id="polygon-logo" transform="translate(964.000000, 1691.000000)">
                <path d="M66.5080176,11.7725909 C67.5509277,12.3983896 68.4334668,13.2588526 68.9949316,14.4322067 C69.636748,15.6055772 69.9576562,17.0136614 69.9576562,18.5780346 C69.9576562,20.1425726 69.636748,21.4724464 68.9147461,22.6457675 C68.2729297,23.8190886 67.3102051,24.679634 66.1067578,25.227074 C64.9034766,25.8529551 63.4593066,26.1658956 61.9351172,26.1658956 C61.0525781,26.1658956 60.2502246,26.009343 59.4480371,25.6965672 C58.6456836,25.461903 57.9236816,24.9924097 57.3620508,24.4449698 L57.3620508,32.5802708 L52.7089648,32.5802708 L52.7089648,11.1467922 L56.7202344,11.1467922 L57.1214941,12.8677346 C58.8864062,11.4596998 60.8118555,10.7556742 62.8174902,10.7556742 C64.1813086,10.7556742 65.4649414,11.0685653 66.5080176,11.7725909 Z M63.940752,21.4724464 C64.7429395,20.7684538 65.1440332,19.8296321 65.1440332,18.656311 C65.1440332,17.4829899 64.7429395,16.544333 64.0209375,15.762031 C63.2989355,14.9797785 62.3362109,14.6668874 61.2933008,14.6668874 C60.4107617,14.6668874 59.6084082,14.8233412 58.9665918,15.2144592 C58.3247754,15.5273503 57.8434961,16.0749221 57.4424023,16.7789972 L57.4424023,20.2989605 C57.682959,21.003118 58.1644043,21.550558 58.7260352,21.9417749 C59.3678516,22.332827 60.0898535,22.5674912 60.9723926,22.5674912 C62.1756738,22.5674912 63.1383984,22.1764391 63.940752,21.4724464 Z" id="Shape"></path>
                <path d="M72.685127,14.5088186 C73.4072949,13.413675 74.3698535,12.4749851 75.6534863,11.8491864 C76.9371191,11.2234041 78.3812891,10.8322696 79.9858301,10.8322696 C81.5903711,10.8322696 83.034375,11.1451772 84.3180078,11.8491864 C85.5214551,12.4749851 86.4841797,13.413675 87.2061816,14.587029 C87.9281836,15.7603996 88.2490918,17.0120135 88.2490918,18.4982752 C88.2490918,19.9845368 87.9281836,21.2361343 87.2061816,22.4094554 C86.4841797,23.5827765 85.6016406,24.5214334 84.3180078,25.1473145 C83.1145605,25.7730308 81.5903711,26.1642477 79.9858301,26.1642477 C78.3812891,26.1642477 76.9371191,25.8513072 75.6534863,25.2255908 C74.3698535,24.5997097 73.4072949,23.7393292 72.685127,22.5658433 C72.0433105,21.3925222 71.6422168,20.0626484 71.6422168,18.4982752 C71.6422168,17.0120135 72.0433105,15.6821727 72.685127,14.5088186 Z M77.4185645,21.3142458 C78.0603809,22.0965148 78.9429199,22.4094554 79.9858301,22.4094554 C81.0287402,22.4094554 81.9112793,22.0184033 82.5530957,21.3142458 C83.1949121,20.6102532 83.5158203,19.5933199 83.5158203,18.4982752 C83.5158203,17.3249541 83.1949121,16.3861983 82.5530957,15.6821727 C81.8309277,14.8999366 81.0287402,14.5088186 79.9056445,14.5088186 C78.8625684,14.5088186 78.0603809,14.8999366 77.3383789,15.6039458 C76.6965625,16.3861983 76.3756543,17.3249541 76.3756543,18.4982752 C76.3756543,19.5933199 76.6965625,20.5321416 77.4185645,21.3142458 Z" id="Shape"></path>
                <polygon id="Path" points="95.7911816 0.0382208527 95.7911816 25.7740196 91.1380957 25.7740196 91.1380957 0.0382208527"></polygon>
                <polygon id="Path" points="114.884473 11.536872 105.417764 32.6573936 100.925215 32.6573936 104.455039 25.0696973 97.7161328 11.536872 103.011035 11.536872 106.861934 19.9850312 110.712832 11.536872"></polygon>
                <path d="M132.694131,11.5362953 L132.694131,25.7730308 C132.694131,27.1029046 132.293037,28.3545021 131.490684,29.4497116 C130.688496,30.5447564 129.64542,31.4053017 128.281602,32.0310181 C126.917783,32.6568992 125.473779,32.9696749 123.869238,32.9696749 C122.665791,32.9696749 121.622881,32.8132871 120.740342,32.5786228 C119.857803,32.2656823 119.135801,31.9527417 118.57417,31.639966 C117.93252,31.2487491 117.290703,30.7794206 116.568535,30.1537043 L119.296338,27.0246283 C119.938154,27.6505094 120.660156,28.1198378 121.301973,28.4327784 C121.943789,28.7455542 122.826328,28.9802184 123.789053,28.9802184 C124.992334,28.9802184 125.955059,28.6674426 126.757412,28.1198378 C127.5596,27.5722331 127.960693,26.7118525 127.960693,25.6949193 L127.960693,23.6610528 C127.479414,24.3650455 126.837598,24.9909266 125.874873,25.4602551 C124.912148,25.9295835 123.789053,26.1642477 122.50542,26.1642477 C121.221787,26.1642477 119.938154,25.8513072 118.814893,25.1473145 C117.691797,24.5214334 116.809258,23.5827765 116.087256,22.4094554 C115.445439,21.2361343 115.044346,19.9845368 115.044346,18.5765515 C115.044346,17.1684014 115.365254,15.8386265 116.087256,14.6652559 C116.809258,13.4919019 117.691797,12.553212 118.895078,11.8491864 C120.01834,11.1451772 121.221787,10.8322696 122.50542,10.8322696 C123.708701,10.8322696 124.751611,10.9887234 125.714336,11.3016146 C126.677061,11.6145222 127.399229,12.0838671 127.880508,12.6314389 L128.361953,11.5362953 L132.694131,11.5362953 Z M127.960693,20.2974774 L127.960693,16.7773493 C127.639785,16.0733072 127.158506,15.5257353 126.436504,15.1346008 C125.714336,14.7434828 124.912148,14.5088186 123.949424,14.5088186 C122.826328,14.5088186 121.863604,14.8999366 121.06125,15.6039458 C120.259062,16.3079714 119.857803,17.2466777 119.857803,18.4199988 C119.857803,19.5152084 120.259062,20.5321416 121.06125,21.3142458 C121.863604,22.0965148 122.826328,22.4877317 123.949424,22.4877317 C125.794687,22.4094554 127.158506,21.7054627 127.960693,20.2974774 Z" id="Shape"></path>
                <path d="M136.546357,14.5104336 C137.268359,13.3370795 138.231084,12.4766001 139.514717,11.7725909 C140.79835,11.1467922 142.24252,10.7556742 143.847061,10.7556742 C145.451602,10.7556742 146.895605,11.0685653 148.179238,11.7725909 C149.382686,12.3983896 150.34541,13.3370795 151.067412,14.5104336 C151.709229,15.6838041 152.110322,16.9353851 152.110322,18.4216467 C152.110322,19.9079084 151.789414,21.1595059 151.067412,22.332827 C150.425596,23.5061481 149.462871,24.4449698 148.179238,25.0706861 C146.975791,25.6965672 145.451602,26.0876193 143.847061,26.0876193 C142.24252,26.0876193 140.79835,25.7746788 139.514717,25.1489624 C138.231084,24.5230813 137.268359,23.6627008 136.546357,22.4893796 C135.824355,21.3158937 135.503447,19.9861848 135.503447,18.3433704 C135.503447,17.0136614 135.824355,15.6838041 136.546357,14.5104336 Z M141.199609,21.3158937 C141.841426,22.0981627 142.723799,22.4111033 143.766709,22.4111033 C144.809785,22.4111033 145.692158,22.0198864 146.333975,21.3158937 C146.975791,20.6119011 147.296699,19.5949679 147.296699,18.4999231 C147.296699,17.3264372 146.975791,16.3878133 146.333975,15.6838041 C145.692158,14.9797785 144.809785,14.5886605 143.766709,14.5886605 C142.723799,14.5886605 141.921611,14.9797785 141.199609,15.6838041 C140.477441,16.3878133 140.156533,17.4047135 140.156533,18.4999231 C140.236885,19.5949679 140.557793,20.5336247 141.199609,21.3158937 Z" id="Shape"></path>
                <path d="M168.557324,12.0056402 C169.520215,12.7878762 169.920312,13.804793 170,15.0563904 L170,25.7730308 L165.267393,25.7730308 L165.267393,16.7773493 C165.187207,15.3692815 164.465205,14.6652559 163.101221,14.6652559 C162.058311,14.6652559 161.175937,15.1346008 160.534121,16.1515176 C159.892305,17.1684014 159.571396,18.4199988 159.571396,19.9062605 L159.571396,25.7730308 L154.918145,25.7730308 L154.918145,11.5362953 L159.170137,11.5362953 L159.491045,13.804793 C160.052676,12.8661031 160.774678,12.162094 161.737402,11.6145222 C162.700127,11.0669503 163.823389,10.8322696 165.107021,10.8322696 C166.470508,10.8322696 167.674121,11.2234041 168.557324,12.0056402 Z" id="Path"></path>
                <path d="M32.8126562,11.3033943 C32.0103027,10.8340494 30.9673926,10.8340494 30.0850195,11.3033943 L23.8272266,14.9017164 L19.5752344,17.2484904 L13.3176074,20.8467301 C12.5153369,21.3160585 11.4723936,21.3160585 10.5899043,20.8467301 L5.61586035,18.0305946 C4.81358984,17.5612662 4.25200879,16.7008856 4.25200879,15.7621793 L4.25200879,10.2082507 C4.25200879,9.26956082 4.73337109,8.40909788 5.61586035,7.93975296 L10.5096689,5.20191032 C11.3119395,4.7325654 12.3548828,4.7325654 13.2373721,5.20191032 L18.1312305,7.93975296 C18.933418,8.40909788 19.4950488,9.26956082 19.4950488,10.2082507 L19.4950488,13.8065727 L23.747041,11.3816212 L23.747041,7.78331563 C23.747041,6.84460931 23.2657617,5.98414636 22.3832227,5.51480144 L13.3176074,0.352008939 C12.5153369,-0.117336313 11.4723936,-0.117336313 10.5899043,0.352008939 L1.36385156,5.51480144 C0.481358984,5.98414636 0,6.84460931 0,7.78331563 L0,18.1871473 C0,19.1258042 0.481358984,19.9863495 1.36385156,20.455678 L10.5899043,25.6184557 C11.3921582,26.0877841 12.4351182,26.0877841 13.3176074,25.6184557 L19.5752344,22.0983275 L23.8272266,19.673409 L30.0850195,16.1532973 C30.887207,15.6839524 31.9301172,15.6839524 32.8126562,16.1532973 L37.7064648,18.89114 C38.5086523,19.3604684 39.0702832,20.2210138 39.0702832,21.1596707 L39.0702832,26.7135004 C39.0702832,27.6523221 38.5890039,28.5127027 37.7064648,28.9820311 L32.8126562,31.7981666 C32.0103027,32.267495 30.9673926,32.267495 30.0850195,31.7981666 L25.1912109,29.0603074 C24.3888574,28.590979 23.8272266,27.7304337 23.8272266,26.7917768 L23.8272266,23.1935371 L19.5752344,25.6184557 L19.5752344,29.2166953 C19.5752344,30.1553522 20.0566797,31.0158976 20.9390527,31.485226 L30.1652051,36.6480037 C30.9673926,37.1173321 32.0103027,37.1173321 32.8928418,36.6480037 L42.1189941,31.485226 C42.9211816,31.0158976 43.4828125,30.1553522 43.4828125,29.2166953 L43.4828125,18.8128636 C43.4828125,17.8742068 43.0013672,17.0138262 42.1189941,16.5444978 L32.8126562,11.3033943 Z" id="Path"></path>
            </g>
        </g>
    </g>
</svg>