<svg width="56" height="56" viewBox="0 0 56 56" fill="none" xmlns="http://www.w3.org/2000/svg">
<path opacity="0.8" d="M26.7372 13.3677C26.7428 10.8888 25.7611 8.50922 24.0081 6.75244C22.2551 4.99567 19.8744 4.00559 17.3897 4.00002C14.9049 3.99445 12.5198 4.97384 10.7589 6.72274C8.99798 8.47164 8.00558 10.8468 8 13.3257C8 18.4506 12.2106 22.6933 17.3475 22.6933C22.5266 22.6933 26.7372 18.4926 26.7372 13.3677Z" fill="white"/>
<path d="M46.148 18.9966H45.1375C44.3796 17.0223 43.0322 15.258 41.2637 13.7877C41.7586 12.9209 42.3379 12.1048 42.9931 11.3513C43.4984 10.7632 43.0773 9.79699 42.2773 9.71298C40.172 9.54495 37.9404 10.1751 36.1298 10.8892C33.9127 10.1046 31.5768 9.70671 29.2244 9.71298H28.9297C29.3024 10.8663 29.4872 12.0718 29.4771 13.2836C29.4755 16.492 28.1968 19.5684 25.9223 21.8365C23.6477 24.1046 20.5634 25.3787 17.3475 25.3787C15.7054 25.3787 14.1895 25.0847 12.8 24.4966C13.3895 27.6471 15.3685 30.3776 18.3159 32.394L17.2212 36.4687C17.1608 36.6921 17.1457 36.9254 17.1768 37.1547C17.2078 37.3841 17.2844 37.6049 17.402 37.8044C17.5196 38.0039 17.6759 38.178 17.8618 38.3165C18.0476 38.455 18.2593 38.5551 18.4844 38.6111L22.1055 39.5772C22.3295 39.6374 22.5632 39.6525 22.7931 39.6215C23.023 39.5905 23.2444 39.5141 23.4443 39.3968C23.6443 39.2795 23.8188 39.1235 23.9576 38.9381C24.0964 38.7527 24.1968 38.5416 24.2529 38.317L25.095 35.1665C26.465 35.458 27.8628 35.5988 29.2635 35.5865C30.6493 35.578 32.031 35.4373 33.3899 35.1665L34.232 38.317C34.4847 39.2412 35.4524 39.8293 36.3787 39.5772L39.9998 38.6111C40.4457 38.4873 40.8245 38.1925 41.0532 37.7911C41.282 37.3897 41.3423 36.9143 41.2209 36.4687L40.1261 32.394C42.442 30.8427 44.1661 28.7843 45.0946 26.4289H46.1473C46.3908 26.4304 46.6322 26.3837 46.8575 26.2916C47.0828 26.1994 47.2875 26.0636 47.4599 25.892C47.6322 25.7204 47.7688 25.5164 47.8616 25.2918C47.9544 25.0672 48.0017 24.8265 48.0007 24.5836V20.8029C47.995 20.3185 47.7967 19.8561 47.4494 19.5174C47.1022 19.1787 46.6344 18.9914 46.1488 18.9966H46.148ZM39.1554 20.0888C38.8223 20.0888 38.4967 19.9903 38.2197 19.8056C37.9427 19.621 37.7269 19.3586 37.5994 19.0515C37.4719 18.7445 37.4386 18.4066 37.5036 18.0807C37.5685 17.7548 37.7289 17.4554 37.9645 17.2204C38.2 16.9854 38.5001 16.8253 38.8269 16.7605C39.1536 16.6957 39.4922 16.7289 39.8 16.8561C40.1077 16.9833 40.3708 17.1987 40.5558 17.475C40.7409 17.7513 40.8397 18.0762 40.8397 18.4085C40.8383 18.8532 40.6608 19.2793 40.3459 19.5941C40.031 19.9088 39.6042 20.0866 39.1584 20.0888H39.1554Z" fill="white"/>
</svg>
