<svg width="149" height="53" viewBox="0 0 149 53" fill="none" xmlns="http://www.w3.org/2000/svg">
<path d="M3.17016 0.96H3.15016L1.96016 4.2H4.32016L3.17016 0.96ZM2.79016 0H3.58016L6.17016 6.8H5.27016L4.58016 4.88H1.70016L1.01016 6.8H0.160156L2.79016 0ZM7.1011 0H7.8611V4.43C7.8611 4.74333 7.90443 5.01333 7.9911 5.24C8.08443 5.46667 8.20776 5.65333 8.3611 5.8C8.5211 5.9467 8.7111 6.0567 8.9311 6.13C9.1511 6.2033 9.3911 6.24 9.6511 6.24C9.88443 6.24 10.1078 6.2033 10.3211 6.13C10.5411 6.0567 10.7311 5.94 10.8911 5.78C11.0578 5.62 11.1878 5.41667 11.2811 5.17C11.3811 4.92333 11.4311 4.62667 11.4311 4.28V0H12.1911V4.29C12.1911 4.73667 12.1211 5.12667 11.9811 5.46C11.8478 5.78667 11.6645 6.06 11.4311 6.28C11.2045 6.5 10.9378 6.6633 10.6311 6.77C10.3245 6.8767 9.99776 6.93 9.6511 6.93C9.23776 6.93 8.8711 6.8733 8.5511 6.76C8.2311 6.64 7.96443 6.4767 7.7511 6.27C7.53776 6.0567 7.37443 5.8067 7.2611 5.52C7.15443 5.22667 7.1011 4.90333 7.1011 4.55V0ZM16.2064 0C16.8797 0 17.4397 0.1 17.8864 0.3C18.3397 0.5 18.6997 0.76 18.9664 1.08C19.2397 1.4 19.433 1.76 19.5464 2.16C19.6597 2.56 19.7164 2.96 19.7164 3.36C19.7164 3.78667 19.643 4.20667 19.4964 4.62C19.3497 5.02667 19.1297 5.39333 18.8364 5.72C18.5497 6.04 18.1897 6.3 17.7564 6.5C17.323 6.7 16.823 6.8 16.2564 6.8H14.0964V0H16.2064ZM14.8564 6.11H16.2464C16.7064 6.11 17.103 6.0333 17.4364 5.88C17.7697 5.72 18.0464 5.51333 18.2664 5.26C18.4864 5 18.6464 4.70667 18.7464 4.38C18.853 4.04667 18.9064 3.70667 18.9064 3.36C18.9064 3.02 18.8564 2.69 18.7564 2.37C18.663 2.04333 18.5064 1.75667 18.2864 1.51C18.073 1.26333 17.7897 1.06667 17.4364 0.92C17.0897 0.76667 16.663 0.69 16.1564 0.69H14.8564V6.11ZM21.3729 0H22.1329V6.8H21.3729V0ZM25.4336 0.69H23.3736V0H28.2536V0.69H26.1936V6.8H25.4336V0.69ZM29.3877 0H33.2177V0.69H30.1477V2.97H33.1277V3.65H30.1477V6.11H33.2177V6.8H29.3877V0ZM36.9876 0C37.661 0 38.221 0.1 38.6676 0.3C39.121 0.5 39.481 0.76 39.7476 1.08C40.021 1.4 40.2143 1.76 40.3276 2.16C40.441 2.56 40.4976 2.96 40.4976 3.36C40.4976 3.78667 40.4243 4.20667 40.2776 4.62C40.131 5.02667 39.911 5.39333 39.6176 5.72C39.331 6.04 38.971 6.3 38.5376 6.5C38.1043 6.7 37.6043 6.8 37.0376 6.8H34.8776V0H36.9876ZM35.6376 6.11H37.0276C37.4876 6.11 37.8843 6.0333 38.2176 5.88C38.551 5.72 38.8276 5.51333 39.0476 5.26C39.2676 5 39.4276 4.70667 39.5276 4.38C39.6343 4.04667 39.6876 3.70667 39.6876 3.36C39.6876 3.02 39.6376 2.69 39.5376 2.37C39.4443 2.04333 39.2876 1.75667 39.0676 1.51C38.8543 1.26333 38.571 1.06667 38.2176 0.92C37.871 0.76667 37.4443 0.69 36.9376 0.69H35.6376V6.11ZM44.583 0H46.573C46.8663 0 47.1363 0.0333304 47.383 0.1C47.6297 0.16667 47.843 0.27 48.023 0.41C48.203 0.54333 48.343 0.71 48.443 0.91C48.543 1.10333 48.593 1.33 48.593 1.59C48.593 1.97 48.5097 2.30333 48.343 2.59C48.1763 2.87 47.8997 3.09333 47.513 3.26V3.27C47.6797 3.30333 47.843 3.35333 48.003 3.42C48.1697 3.48667 48.3197 3.58333 48.453 3.71C48.5863 3.83667 48.693 3.99667 48.773 4.19C48.8597 4.37667 48.903 4.60667 48.903 4.88C48.903 5.19333 48.8397 5.47 48.713 5.71C48.5863 5.9433 48.413 6.1433 48.193 6.31C47.9797 6.47 47.733 6.5933 47.453 6.68C47.173 6.76 46.883 6.8 46.583 6.8H44.583V0ZM46.563 6.11C46.783 6.11 46.9863 6.0867 47.173 6.04C47.3597 5.9867 47.5197 5.91 47.653 5.81C47.793 5.71 47.903 5.58333 47.983 5.43C48.063 5.27 48.103 5.08333 48.103 4.87C48.103 4.42333 47.9597 4.11 47.673 3.93C47.3863 3.74333 46.993 3.65 46.493 3.65H45.343V6.11H46.563ZM46.373 3.02C46.793 3.02 47.1363 2.91333 47.403 2.7C47.6697 2.48667 47.803 2.17 47.803 1.75C47.803 1.52333 47.7597 1.33667 47.673 1.19C47.593 1.04333 47.483 0.93 47.343 0.85C47.203 0.76333 47.043 0.70667 46.863 0.68C46.683 0.64667 46.4963 0.63 46.303 0.63H45.343V3.02H46.373ZM52.0998 4.02L49.7498 0H50.7098L52.4998 3.35L54.2598 0H55.1598L52.8498 4.02V6.8H52.0998V4.02Z" fill="white"/>
<mask id="mask0_120_1073" style="mask-type:alpha" maskUnits="userSpaceOnUse" x="0" y="23" width="149" height="30">
<path d="M149 23.8H0V52.9001H149V23.8Z" fill="white"/>
</mask>
<g mask="url(#mask0_120_1073)">
<path d="M40.2927 31.8396C40.2927 31.6189 40.3873 31.3982 40.5449 31.2406C40.7025 31.0829 40.9232 30.9884 41.1439 30.9884H48.8367C48.9628 30.9884 49.0889 30.9253 49.1835 30.8622C49.2781 30.7677 49.3096 30.6415 49.3096 30.5154V30.2002C49.3096 30.0741 49.2465 29.9479 49.1835 29.8534C49.0889 29.7588 48.9628 29.7272 48.8367 29.7272H39.9143C39.2838 29.7272 38.6848 29.9795 38.2434 30.4209C37.802 30.8622 37.5498 31.4613 37.5498 32.0918V36.5372C37.5498 37.1678 37.802 37.7668 38.2434 38.2082C38.6848 38.6496 39.2838 38.9018 39.9143 38.9018H46.0938C46.3145 38.9018 46.5352 38.9964 46.6928 39.1856C46.8504 39.3432 46.945 39.5639 46.945 39.7846V44.6399C46.945 44.8606 46.8504 45.0812 46.6928 45.2389C46.5352 45.3965 46.3145 45.4911 46.0938 45.4911H38.7478C38.6217 45.4911 38.4956 45.5542 38.401 45.6172C38.3064 45.7118 38.2749 45.8379 38.2749 45.964V46.2793C38.2749 46.4054 38.338 46.5315 38.401 46.6261C38.4956 46.7207 38.6217 46.7522 38.7478 46.7522H47.2918C47.6071 46.7522 47.8909 46.6892 48.2061 46.563C48.4899 46.4369 48.7421 46.2793 48.9628 46.0586C49.1835 45.8379 49.3411 45.5857 49.4672 45.3019C49.5934 45.0182 49.6564 44.7029 49.6564 44.3876V39.9738C49.6564 39.3432 49.4042 38.7442 48.9628 38.3028C48.5214 37.8614 47.9224 37.6092 47.2918 37.6092H41.1124C40.8917 37.6092 40.671 37.5146 40.5134 37.357C40.3557 37.1993 40.2611 36.9786 40.2611 36.7579V31.8396H40.2927Z" fill="white"/>
<path d="M125.859 31.8396C125.859 31.6189 125.953 31.3982 126.111 31.2406C126.269 31.0829 126.489 30.9884 126.71 30.9884H134.403C134.529 30.9884 134.655 30.9253 134.749 30.8622C134.844 30.7677 134.876 30.6415 134.876 30.5154V30.2002C134.876 30.0741 134.813 29.9479 134.749 29.8534C134.655 29.7588 134.529 29.7272 134.403 29.7272H125.449C124.818 29.7272 124.219 29.9795 123.778 30.4209C123.336 30.8622 123.084 31.4613 123.084 32.0918V36.5372C123.084 37.1678 123.336 37.7668 123.778 38.2082C124.219 38.6496 124.818 38.9018 125.449 38.9018H131.628C131.849 38.9018 132.07 38.9964 132.227 39.1856C132.385 39.3432 132.479 39.5639 132.479 39.7846V44.6399C132.479 44.8606 132.385 45.0812 132.227 45.2389C132.07 45.3965 131.849 45.4911 131.628 45.4911H124.282C124.156 45.4911 124.03 45.5542 123.935 45.6172C123.841 45.7118 123.809 45.8379 123.809 45.964V46.2793C123.809 46.4054 123.872 46.5315 123.935 46.6261C124.03 46.7207 124.156 46.7522 124.282 46.7522H132.858C133.173 46.7522 133.457 46.6892 133.772 46.563C134.056 46.4369 134.308 46.2793 134.529 46.0586C134.749 45.8379 134.907 45.5857 135.033 45.3019C135.159 45.0182 135.222 44.7029 135.222 44.3876V39.9738C135.222 39.3432 134.97 38.7442 134.529 38.3028C134.087 37.8614 133.488 37.6092 132.858 37.6092H126.678C126.458 37.6092 126.237 37.5146 126.079 37.357C125.922 37.1993 125.827 36.9786 125.827 36.7579V31.8396H125.859Z" fill="white"/>
<path d="M60.5018 45.4281H56.6554C56.4347 45.4281 56.214 45.3335 56.0564 45.1443C55.8987 44.9867 55.8042 44.766 55.8042 44.5453V30.1687C55.8042 30.0426 55.7411 29.9164 55.678 29.8219C55.5835 29.7273 55.4574 29.6958 55.3312 29.6958H53.5657C53.4396 29.6958 53.3135 29.7588 53.2189 29.8219C53.1243 29.9164 53.0928 30.0426 53.0928 30.1687V44.3246C53.0928 44.9552 53.345 45.5542 53.7864 45.9956C54.2278 46.437 54.8268 46.6892 55.4574 46.6892H60.5018C60.6279 46.6892 60.754 46.6261 60.8486 46.5631C60.9432 46.4685 60.9747 46.3424 60.9747 46.2163V45.901C60.9747 45.8379 60.9747 45.7749 60.9432 45.7118C60.9116 45.6488 60.8801 45.5857 60.8486 45.5542C60.8171 45.5227 60.754 45.4596 60.691 45.4596C60.6279 45.4596 60.5648 45.4281 60.5018 45.4281Z" fill="white"/>
<path d="M88.751 45.4281H90.0751C90.2958 45.4281 90.5165 45.3335 90.6742 45.1443C90.8318 44.9867 90.9264 44.766 90.9264 44.5453V30.1687C90.9264 30.0426 90.9894 29.9164 91.0525 29.8219C91.1471 29.7273 91.2732 29.6958 91.3993 29.6958H93.1964C93.3225 29.6958 93.4486 29.7588 93.5432 29.8219C93.6378 29.9164 93.6693 30.0426 93.6693 30.1687V44.3246C93.6693 44.9552 93.4171 45.5542 92.9757 45.9956C92.5343 46.437 91.9353 46.6892 91.3047 46.6892H88.7825C88.6564 46.6892 88.5303 46.6261 88.4357 46.5631C88.3411 46.4685 88.3096 46.3424 88.3096 46.2163V45.901C88.3096 45.8379 88.3096 45.7749 88.3411 45.7118C88.3726 45.6488 88.4042 45.5857 88.4357 45.5542C88.4672 45.5227 88.5303 45.4596 88.5933 45.4596C88.6249 45.4596 88.6879 45.4281 88.751 45.4281Z" fill="white"/>
<path d="M83.138 45.4281H81.8139C81.5932 45.4281 81.3725 45.3335 81.2148 45.1443C81.0572 44.9867 80.9626 44.766 80.9626 44.5453V30.1687C80.9626 30.0426 80.8996 29.9164 80.8365 29.8219C80.7419 29.7273 80.6158 29.6958 80.4897 29.6958H78.6926C78.5665 29.6958 78.4404 29.7588 78.3458 29.8219C78.2512 29.9164 78.2197 30.0426 78.2197 30.1687V44.3246C78.2197 44.9552 78.4719 45.5542 78.9133 45.9956C79.3547 46.437 79.9537 46.6892 80.5843 46.6892H83.1065C83.2326 46.6892 83.3587 46.6261 83.4533 46.5631C83.5479 46.4685 83.5794 46.3424 83.5794 46.2163V45.901C83.5794 45.8379 83.5794 45.7749 83.5479 45.7118C83.5164 45.6488 83.4848 45.5857 83.4533 45.5542C83.4218 45.5227 83.3587 45.4596 83.2957 45.4596C83.2641 45.4596 83.2011 45.4281 83.138 45.4281Z" fill="white"/>
<path d="M70.4013 45.4281H66.681C66.4603 45.4281 66.2396 45.3335 66.082 45.1443C65.9244 44.9867 65.8298 44.766 65.8298 44.5453V30.1687C65.8298 30.0426 65.7667 29.9164 65.7037 29.8219C65.6406 29.7273 65.483 29.6958 65.3568 29.6958H63.5598C63.4337 29.6958 63.3076 29.7588 63.213 29.8219C63.1184 29.8849 63.0869 30.0426 63.0869 30.1687V44.3246C63.0869 44.9552 63.3391 45.5542 63.7805 45.9956C64.2219 46.437 64.8209 46.6892 65.4514 46.6892H70.3698C70.4959 46.6892 70.622 46.6261 70.7166 46.5631C70.8111 46.4685 70.8427 46.3424 70.8427 46.2163V45.901C70.8427 45.8379 70.8427 45.7749 70.8111 45.7118C70.7796 45.6488 70.7481 45.5857 70.7166 45.5542C70.685 45.5227 70.622 45.4596 70.5589 45.4596C70.5274 45.4596 70.4643 45.4281 70.4013 45.4281Z" fill="white"/>
<path d="M118.954 29.7272H117.157C117.031 29.7272 116.905 29.7903 116.81 29.8534C116.716 29.9479 116.684 30.0741 116.684 30.2002V46.2162C116.684 46.3424 116.747 46.4685 116.81 46.563C116.905 46.6576 117.031 46.6892 117.157 46.6892H118.954C119.08 46.6892 119.206 46.6261 119.301 46.563C119.395 46.4685 119.427 46.3424 119.427 46.2162V30.2002C119.427 30.1371 119.427 30.074 119.395 30.011C119.364 29.9479 119.332 29.8849 119.301 29.8534C119.269 29.8218 119.206 29.7588 119.143 29.7588C119.08 29.7272 119.017 29.7272 118.954 29.7272Z" fill="white"/>
<path d="M86.8589 29.7272H85.0618C84.9357 29.7272 84.8096 29.7903 84.715 29.8534C84.6204 29.9479 84.5889 30.0741 84.5889 30.2002V46.2162C84.5889 46.3424 84.6519 46.4685 84.715 46.563C84.8096 46.6576 84.9357 46.6892 85.0618 46.6892H86.8589C86.985 46.6892 87.1111 46.6261 87.2057 46.563C87.3003 46.4685 87.3318 46.3424 87.3318 46.2162V30.2002C87.3318 30.1371 87.3318 30.074 87.3003 30.011C87.2687 29.9479 87.2372 29.8849 87.2057 29.8534C87.1741 29.8218 87.1111 29.7588 87.048 29.7588C86.985 29.7588 86.9219 29.7272 86.8589 29.7272Z" fill="white"/>
<path d="M102.339 30.9569H101.015C100.794 30.9569 100.573 31.0514 100.416 31.2091C100.258 31.3667 100.164 31.5874 100.164 31.8081V46.2163C100.164 46.3424 100.101 46.4685 100.037 46.5631C99.9431 46.6577 99.817 46.6892 99.6908 46.6892H97.8938C97.7677 46.6892 97.6415 46.6261 97.547 46.5631C97.4524 46.4685 97.4209 46.3424 97.4209 46.2163V32.0603C97.4209 31.4298 97.6731 30.8308 98.1145 30.3894C98.5558 29.948 99.1549 29.6958 99.7854 29.6958H102.307C102.434 29.6958 102.56 29.7588 102.654 29.8219C102.749 29.9164 102.78 30.0426 102.78 30.1687V30.4839C102.78 30.6101 102.749 30.7362 102.654 30.8308C102.591 30.9253 102.465 30.9569 102.339 30.9569Z" fill="white"/>
<path d="M107.951 30.9569H109.275C109.496 30.9569 109.716 31.0514 109.874 31.2091C110.032 31.3667 110.126 31.5874 110.126 31.8081V46.2163C110.126 46.3424 110.189 46.4685 110.252 46.5631C110.347 46.6577 110.473 46.6892 110.599 46.6892H112.365C112.491 46.6892 112.617 46.6261 112.712 46.5631C112.806 46.4685 112.838 46.3424 112.838 46.2163V32.0603C112.838 31.4298 112.586 30.8308 112.144 30.3894C111.703 29.948 111.104 29.6958 110.473 29.6958H107.951C107.825 29.6958 107.699 29.7588 107.604 29.8219C107.51 29.9164 107.478 30.0426 107.478 30.1687V30.4839C107.478 30.547 107.478 30.6101 107.51 30.6731C107.541 30.7362 107.573 30.7992 107.604 30.8308C107.636 30.8623 107.699 30.9253 107.762 30.9253C107.825 30.9569 107.888 30.9569 107.951 30.9569Z" fill="white"/>
<path d="M67.1855 30.9569H70.9057C71.1264 30.9569 71.3471 31.0514 71.5048 31.2091C71.6624 31.3667 71.757 31.5874 71.757 31.8081V46.2163C71.757 46.3424 71.8201 46.4685 71.8831 46.5631C71.9777 46.6577 72.1038 46.6892 72.2299 46.6892H74.027C74.1531 46.6892 74.2792 46.6261 74.3738 46.5631C74.4684 46.4685 74.4999 46.3424 74.4999 46.2163V32.0603C74.4999 31.4298 74.2477 30.8308 73.8063 30.3894C73.3649 29.948 72.7659 29.6958 72.1353 29.6958H67.217C67.0909 29.6958 66.9648 29.7588 66.8702 29.8219C66.7756 29.9164 66.7441 30.0426 66.7441 30.1687V30.4839C66.7441 30.6101 66.7756 30.7362 66.8702 30.7992C66.9333 30.9253 67.0594 30.9569 67.1855 30.9569Z" fill="white"/>
<path d="M137.839 30.9569H140.645C140.866 30.9569 141.086 31.0514 141.244 31.2091C141.402 31.3667 141.496 31.5874 141.496 31.8081V46.2163C141.496 46.3424 141.559 46.4685 141.622 46.5631C141.717 46.6577 141.843 46.6892 141.969 46.6892H143.766C143.892 46.6892 144.019 46.6261 144.113 46.5631C144.208 46.4685 144.239 46.3424 144.239 46.2163V32.0603C144.239 31.4298 143.987 30.8308 143.546 30.3894C143.104 29.948 142.505 29.6958 141.875 29.6958H137.839C137.713 29.6958 137.587 29.7588 137.492 29.8219C137.398 29.9164 137.366 30.0426 137.366 30.1687V30.4839C137.366 30.6101 137.398 30.7362 137.492 30.7992C137.618 30.8938 137.713 30.9569 137.839 30.9569Z" fill="white"/>
<path d="M104.23 46.7208H106.028C106.154 46.7208 106.28 46.6577 106.374 46.5947C106.469 46.5001 106.5 46.374 106.5 46.2479V30.2318C106.5 30.1057 106.437 29.9796 106.374 29.885C106.28 29.7904 106.154 29.7589 106.028 29.7589H104.23C104.104 29.7589 103.978 29.8219 103.884 29.885C103.789 29.9796 103.758 30.1057 103.758 30.2318V46.2479C103.758 46.3109 103.758 46.374 103.789 46.437C103.821 46.5001 103.852 46.5316 103.884 46.5947C103.915 46.6262 103.978 46.6892 104.041 46.6892C104.136 46.6892 104.199 46.7208 104.23 46.7208Z" fill="white"/>
<path d="M148.527 29.6958H146.73C146.604 29.6958 146.478 29.7588 146.383 29.8219C146.289 29.9164 146.257 30.0426 146.257 30.1687V31.8081C146.257 31.9342 146.32 32.0603 146.383 32.1549C146.478 32.2495 146.604 32.281 146.73 32.281H148.559C148.685 32.281 148.811 32.218 148.905 32.1549C149 32.0603 149.032 31.9342 149.032 31.8081V30.1687C149.032 30.1056 149.032 30.0426 149 29.9795C148.968 29.9164 148.937 29.8534 148.874 29.8219C148.842 29.7903 148.779 29.7588 148.716 29.7273C148.653 29.6958 148.59 29.6958 148.527 29.6958Z" fill="white"/>
<path d="M18.6015 46.2478C17.0567 48.0764 15.2281 49.6213 13.1788 50.8193C13.1788 50.8193 1.8603 44.9237 1.8603 29.8534C7.97668 29.5697 12.296 26.8267 13.1788 25.944C13.7147 26.4799 15.4488 27.6465 18.0971 28.5923V26.8583C16.2685 26.2277 14.5975 25.1873 13.2103 23.8316C12.3275 24.7144 8.92251 27.9933 0.0947516 28.4347C-0.788024 46.2163 13.2103 52.9317 13.2103 52.9317C16.2369 51.2923 18.8853 49.0223 20.9661 46.2794H18.6015V46.2478Z" fill="white"/>
<path d="M21.9746 36.6003H17.876V40.3206H21.9746V36.6003Z" fill="white"/>
<path d="M17.5926 40.6989H16.3945V41.7393H17.5926V40.6989Z" fill="white"/>
<path d="M20.2727 42.5275H18.4756V44.167H20.2727V42.5275Z" fill="white"/>
<path d="M24.6858 42.7797H22.0059V45.1443H24.6858V42.7797Z" fill="white"/>
<path d="M31.5595 34.9609H28.3438V37.8614H31.5595V34.9609Z" fill="white"/>
<path d="M31.2757 29.475H29.7939V30.7992H31.2757V29.475Z" fill="white"/>
<path d="M28.3754 30.2948H26.8936V31.6189H28.3754V30.2948Z" fill="white"/>
<path d="M28.3751 38.1452H26.4834V39.8792H28.3751V38.1452Z" fill="white"/>
<path d="M27.0197 41.2349H25.002V43.032H27.0197V41.2349Z" fill="white"/>
<path d="M25.3488 27.2681H23.1104V29.2544H25.3488V27.2681Z" fill="white"/>
<path d="M21.0605 25.5025H19.0742V27.2681H21.0605V25.5025Z" fill="white"/>
<path d="M18.8535 28.9707H16.2998V31.2406H18.8535V28.9707Z" fill="white"/>
<path d="M16.489 30.1372H16.2998V32.4072H16.489V30.1372Z" fill="white"/>
<path d="M20.3036 27.1735H20.083V29.4435H20.3036V27.1735Z" fill="white"/>
<path d="M24.6549 28.9707H24.4658V33.9836H24.6549V28.9707Z" fill="white"/>
<path d="M30.3922 30.5156H30.2031V35.5285H30.3922V30.5156Z" fill="white"/>
<path d="M30.2984 30.6101H27.9023V30.8308H30.2984V30.6101Z" fill="white"/>
<path d="M28.4697 35.623H26.042V35.8122H28.4697V35.623Z" fill="white"/>
<path d="M26.83 38.3028H24.4023V38.492H26.83V38.3028Z" fill="white"/>
<path d="M23.7723 39.0279H21.3447V39.2171H23.7723V39.0279Z" fill="white"/>
<path d="M25.9156 42.7797H23.5195V43.0004H25.9156V42.7797Z" fill="white"/>
<path d="M28.0915 38.5866L27.9023 38.4605L28.5644 37.4516L28.722 37.5777L28.0915 38.5866Z" fill="white"/>
<path d="M17.4027 41.0772L17.2451 40.9196L18.0964 40.0683L18.254 40.2259L17.4027 41.0772Z" fill="white"/>
<path d="M23.4567 34.3304H21.0605V34.5196H23.4567V34.3304Z" fill="white"/>
<path d="M19.5156 32.2496H17.0879V32.4388H19.5156V32.2496Z" fill="white"/>
<path d="M21.1553 30.3262H20.9346V35.3392H21.1553V30.3262Z" fill="white"/>
<path d="M20.2725 38.7758H20.0518V43.7887H20.2725V38.7758Z" fill="white"/>
<path d="M27.0195 38.2713H26.7988V42.0546H27.0195V38.2713Z" fill="white"/>
<path d="M23.1727 29.2543H19.4209V32.6593H23.1727V29.2543Z" fill="white"/>
<path d="M21.4706 35.087H20.4932V35.9698H21.4706V35.087Z" fill="white"/>
<path d="M26.1363 33.4476H23.2988V35.9383H26.1363V33.4476Z" fill="white"/>
<path d="M17.3091 32.2496H14.377V34.9294H17.3091V32.2496Z" fill="white"/>
<path d="M24.9075 37.7984H23.3311V39.2487H24.9075V37.7984Z" fill="white"/>
<g opacity="0.8">
<path opacity="0.8" d="M13.1788 50.8193V25.9439C12.296 26.8267 7.94527 29.5696 1.86042 29.8534C1.8289 44.9236 13.1788 50.8193 13.1788 50.8193Z" fill="white"/>
</g>
</g>
</svg>
