<svg width="56" height="56" viewBox="0 0 56 56" fill="none" xmlns="http://www.w3.org/2000/svg">
<path d="M45.1057 8.0006H20.0298V5.00058C20.0299 4.80843 19.9744 4.62033 19.8701 4.45877C19.7658 4.29721 19.6169 4.16904 19.4415 4.08956C19.266 4.01009 19.0713 3.98269 18.8806 4.01064C18.6899 4.03858 18.5113 4.12069 18.3662 4.24714L10.3429 11.2475C10.2352 11.3414 10.1489 11.4571 10.0897 11.587C10.0306 11.7169 10 11.8579 10 12.0005C10 12.1431 10.0306 12.2841 10.0897 12.414C10.1489 12.5438 10.2352 12.6596 10.3429 12.7535L18.3671 19.7538C18.5122 19.8803 18.6908 19.9624 18.8814 19.9904C19.0721 20.0183 19.2668 19.9909 19.4423 19.9114C19.6178 19.832 19.7666 19.7038 19.871 19.5422C19.9753 19.3807 20.0308 19.1926 20.0307 19.0004V16.0004H45.1057C45.2374 16.0005 45.3679 15.9747 45.4896 15.9246C45.6113 15.8744 45.722 15.8008 45.8151 15.708C45.9083 15.6151 45.9822 15.5049 46.0327 15.3836C46.0831 15.2623 46.1091 15.1323 46.1091 15.0009V9.0009C46.1092 8.86951 46.0833 8.73938 46.0329 8.61797C45.9825 8.49656 45.9086 8.38624 45.8154 8.29333C45.7222 8.20042 45.6116 8.12675 45.4898 8.07652C45.368 8.02629 45.2375 8.00049 45.1057 8.0006Z" fill="white"/>
<path d="M37.7429 20.2476C37.5977 20.1212 37.4192 20.0391 37.2285 20.0111C37.0378 19.9832 36.8431 20.0106 36.6676 20.0901C36.4921 20.1695 36.3433 20.2977 36.239 20.4593C36.1346 20.6208 36.0792 20.8089 36.0792 21.0011V24.0011H11.0033C10.8716 24.001 10.7412 24.0267 10.6194 24.0769C10.4977 24.1271 10.3871 24.2007 10.2939 24.2935C10.2007 24.3863 10.1268 24.4965 10.0764 24.6179C10.026 24.7392 10 24.8692 10 25.0005V31.0006C10.0002 31.2658 10.106 31.5201 10.2941 31.7076C10.4822 31.8952 10.7373 32.0006 11.0033 32.0009H36.0792V35.0009C36.0793 35.193 36.1349 35.381 36.2393 35.5424C36.3437 35.7038 36.4925 35.8319 36.668 35.9112C36.8434 35.9906 37.0381 36.0179 37.2287 35.99C37.4193 35.962 37.5978 35.8799 37.7429 35.7535L45.7662 28.7531C45.8739 28.6593 45.9602 28.5436 46.0193 28.4138C46.0784 28.284 46.109 28.1431 46.109 28.0006C46.109 27.858 46.0784 27.7171 46.0193 27.5873C45.9602 27.4575 45.8739 27.3418 45.7662 27.248L37.7429 20.2476Z" fill="white"/>
</svg>
